<?xml version="1.0" standalone="no"?>
<!DOCTYPE svg PUBLIC "-//W3C//DTD SVG 1.1//EN" "http://www.w3.org/Graphics/SVG/1.1/DTD/svg11.dtd" >
<!--
2013-9-30: Created.
-->
<svg>
<metadata>
Created by iconfont
</metadata>
<defs>

<font id="iconfont" horiz-adv-x="1024" >
  <font-face
    font-family="iconfont"
    font-weight="500"
    font-stretch="normal"
    units-per-em="1024"
    ascent="896"
    descent="-128"
  />
    <missing-glyph />
    
    <glyph glyph-name="-plus-arrow-up" unicode="&#59154;" d="M511.949858 837.534424c-248.315482 0-449.610044-201.294562-449.610044-449.610044s201.294562-449.610044 449.610044-449.610044 449.610044 201.294562 449.610044 449.610044S760.26534 837.534424 511.949858 837.534424zM511.949858-20.812769000000003c-225.743394 0-408.736125 183.01422-408.736125 408.736125 0 225.76386 182.993754 408.736125 408.736125 408.736125s408.736125-182.973288 408.736125-408.736125C920.685983 162.20145100000002 737.692229-20.812769000000003 511.949858-20.812769000000003zM728.71067 340.355991c7.984858-7.984858 7.984858-20.917402 0-28.900214-7.962346-7.982812-20.915355-7.982812-28.898167 0L511.949858 499.319445 324.08619 311.455777c-7.982812-7.982812-20.935822-7.982812-28.898167 0-7.984858 7.982812-7.984858 20.915355 0 28.900214l202.312752 202.312752c7.982812 7.982812 20.915355 7.982812 28.898167 0L728.71067 340.355991z"  horiz-adv-x="1024" />

    
    <glyph glyph-name="-zhankai" unicode="&#58965;" d="M711.131429 487.570286a36.571429 36.571429 0 0 0 40.594285-60.854857l-219.428571-146.285715a36.571429 36.571429 0 0 0-40.594286 0l-219.428571 146.285715a36.571429 36.571429 0 1 0 40.594285 60.854857L512 354.81600000000003l199.131429 132.754286zM512-54.85714299999995c242.358857 0 438.857143 196.498286 438.857143 438.857143S754.358857 822.857143 512 822.857143 73.142857 626.358857 73.142857 384s196.498286-438.857143 438.857143-438.857143z m0-73.142857C229.229714-128 0 101.22971399999994 0 384S229.229714 896 512 896s512-229.229714 512-512-229.229714-512-512-512z"  horiz-adv-x="1024" />

    
    <glyph glyph-name="youxiang" unicode="&#58889;" d="M149.6 724.2h691.9c47.2 0 85.9-37.7 86.5-83.9L495.7 403 63.5 640c0.4 46.4 38.8 84.2 86.1 84.2z m-86.1-175l-0.4-419.6c0-46.7 38.9-84.9 86.5-84.9h691.9c47.6 0 86.5 38.2 86.5 84.9V549.4L505.9 323.2c-6.5-3.5-14.3-3.5-20.7 0l-421.7 226z"  horiz-adv-x="1024" />

    
    <glyph glyph-name="-soldout" unicode="&#58954;" d="M605.903568 869.292973c186.257297 48.902919 377.634595-16.384 499.712-157.197838l-31.356541-27.205189C962.089514 814.27373 786.874811 873.776432 616.724757 829.218595 479.896216 789.254919 373.289514 694.797838 324.912432 571.364324l-38.635243 15.138595c53.44173 136.441081 170.81427 239.394595 319.100541 282.651676l0.553513 0.138378zM861.294703-101.209946c138.378378 38.08173 250.022054 135.832216 308.528432 260.677189l-37.583567 17.60173c-53.524757-114.189838-155.703351-203.554595-282.098163-238.287568l-0.304432-0.083027c-169.928649-49.539459-345.060324 9.741838-457.257514 139.208649l-31.384216-27.177513c122.04973-140.786162 313.565405-206.266811 500.09946-151.93946zM10.24 401.518703a21.033514 21.033514 0 0 0 14.668108 25.6l1297.546378 359.783783c11.07027 3.099676 22.417297-3.404108 25.350919-14.474378l108.156541-406.306594a21.033514 21.033514 0 0 0-14.668108-25.627676l-1297.518703-359.783784a20.48 20.48 0 0 0-25.350919 14.502054L10.267676 401.491027z m45.388108-8.966919l97.47373-366.204541 1257.527351 348.713514L1313.127784 741.292973 55.628108 392.551784zM205.574919 201.202162c11.291676-31.771676 44.557838-45.415784 84.466162-34.594594 43.035676 11.734486 64.290595 41.181405 54.880865 75.720648-7.500108 27.675676-27.260541 38.524541-68.912432 37.69427l-21.116541-0.138378c-27.758703-0.415135-40.378811 5.258378-44.364108 20.009514-5.175351 19.040865 7.970595 36.061405 33.017081 42.869621 23.468973 6.365405 42.482162-0.774919 51.00627-19.179243l23.579676 6.420757c-10.212324 29.862054-43.20173 44.115027-79.595243 34.234811-39.769946-10.821189-60.60973-39.74227-51.919568-71.68 7.251027-26.734703 26.181189-38.137081 62.547027-37.472865l25.849081 0.276756c27.703351 0.553514 42.205405-6.420757 46.578162-22.444973 5.064649-18.653405-9.852541-37.417514-35.148108-44.281081-26.734703-7.306378-48.930595 0.110703-57.15027 19.040865l-23.718054-6.476108zM453.798054 213.268757c40.046703 10.876541 57.288649 45.277405 45.028324 90.388757-12.315676 45.24973-44.557838 66.034162-84.60454 55.129945-40.019027-10.876541-57.316324-45.111351-45.000649-90.388756 12.260324-45.111351 44.557838-66.006486 84.576865-55.129946z m-5.479784 20.203243c-26.624-7.223351-46.854919 7.99827-55.904865 41.236757-9.077622 33.404541 0.719568 56.652108 27.315892 63.875459 26.596324 7.223351 46.799568-7.859892 55.904865-41.236757 9.02227-33.238486-0.719568-56.624432-27.315892-63.875459zM554.454486 243.296865l22.417298 6.088649-53.414054 196.386594-22.417298-6.088649 53.414054-196.386594zM673.127784 272.909838c19.428324 5.286054 33.625946 19.096216 38.220108 37.140757l2.103351 0.581189 6.088649-22.417298 21.393297 5.811892-53.414054 196.386595-22.417297-6.088649 21.199567-78.017729-1.964973-0.525838c-12.149622 13.228973-31.218162 17.989189-50.784864 12.675459-35.701622-9.714162-51.255351-44.751568-39.29946-88.838919 12.038919-44.198054 42.897297-66.476973 78.875676-56.707459z m-28.86573 126.754594c25.461622 6.918919 46.882595-9.132973 55.628108-41.319783 8.856216-32.463568-1.466811-56.845838-27.039135-63.792433-25.683027-6.97427-46.439784 8.524108-55.351351 41.375135-8.911568 32.740324 1.21773 56.762811 26.762378 63.737081zM889.496216 541.280865c-53.220324-14.474378-76.135784-61.467676-59.696432-121.966703 16.384-60.249946 59.281297-89.752216 113.27654-75.084108 53.718486 14.612757 75.58227 61.882811 59.225946 121.994378-16.411676 60.388324-59.364324 89.586162-112.806054 75.056433z m5.867243-21.670054c38.469189 10.461405 70.019459-12.869189 82.833298-59.945514 12.703135-46.688865-2.407784-83.303784-41.015352-93.792865-39.10573-10.627459-70.572973 13.312-83.248432 60.000865-12.813838 47.048649 3.099676 83.303784 41.430486 93.737514zM1141.344865 553.900973l-22.417297-6.088649 22.611027-83.220756c6.725189-24.631351-2.850595-43.063351-27.620325-49.816217-22.417297-6.088649-35.00973 3.099676-41.873297 28.395244l-23.275243 85.517837-22.417298-6.088648 24.742054-90.997622c9.049946-33.266162 30.581622-47.574486 62.131892-38.995027 21.531676 5.867243 34.096432 18.819459 36.891676 36.365838l2.075676 0.553513 6.005621-22.029837 21.393298 5.811892-38.247784 140.592432zM1183.079784 604.298378l9.907892-36.365837-22.694054-6.171676 5.12-18.764108 22.694054 6.171675 23.192216-85.296432c7.306378-26.845405 21.808432-34.400865 50.757189-26.513297 4.428108 1.190054 8.579459 2.905946 12.813838 4.870919l-5.147676 18.930162a98.525405 98.525405 0 0 0-10.295351-3.376433c-14.585081-3.957622-22.777081 1.383784-27.260541 17.933838l-21.642378 79.539892 31.273513 8.524108-5.092324 18.764108-31.273513-8.496432-9.907892 36.365838-22.417298-6.088649z"  horiz-adv-x="1466" />

    
    <glyph glyph-name="-like2" unicode="&#58953;" d="M168.96 483.232c0 108.544 88.448 196.32 197.312 196.32 57.696 0 109.664-24.64 145.728-63.936a197.28 197.28 0 0 0 145.728 63.936c108.864 0 197.312-87.776 197.312-196.32 0-95.968-56.704-185.12-125.024-253.728-68.48-68.8-151.936-120.256-212-140.096a19.2 19.2 0 0 0-12.032 0c-60.064 19.84-143.52 71.328-212 140.096-68.32 68.608-125.024 157.76-125.024 253.76z m197.312 157.92c-87.872 0-158.912-70.784-158.912-157.92 0-81.152 48.544-161.056 113.824-226.624C383.872 193.664 458.944 147.04 512 128c53.056 19.072 128.128 65.696 190.816 128.64 65.28 65.6 113.824 145.504 113.824 226.624 0 87.136-71.04 157.92-158.912 157.92-53.76 0-101.28-26.496-130.048-67.136a19.2 19.2 0 0 0-31.36 0 158.976 158.976 0 0 1-130.048 67.136z"  horiz-adv-x="1024" />

    
    <glyph glyph-name="-like" unicode="&#58952;" d="M366.272 660.352c-98.368 0-178.112-79.296-178.112-177.12 0-177.12 210.496-338.144 323.84-375.584 113.344 37.44 323.84 198.464 323.84 375.584 0 97.824-79.744 177.12-178.112 177.12-60.224 0-113.504-29.728-145.728-75.232a178.208 178.208 0 0 1-145.728 75.232z"  horiz-adv-x="1024" />

    
    <glyph glyph-name="-back" unicode="&#58950;" d="M383.012 372.29999999999995l324.864-351.648-31.752-29.304-351.936 380.952L676.16 753.252l31.752-29.304-324.864-351.648zM758.744 18.635999999999967l-84.6-78.156L275.156 372.29999999999995 674.108 804.12 758.708 726l-326.7-353.664 326.736-353.664zM383.012 372.29999999999995l324.864 351.648-31.752 29.304-351.936-380.952 351.936-380.952 31.752 29.304-324.864 351.648z"  horiz-adv-x="1024" />

    
    <glyph glyph-name="-bag" unicode="&#58951;" d="M503.85916151 701.12867514a117.43242076 117.43242076 0 0 0 118.45414566-118.48710414v-69.21360762h-236.97420905v69.21360762a117.43242076 117.43242076 0 0 0 118.52006339 118.48710414z m163.87145567-187.73367101V582.641571A162.84973077 162.84973077 0 0 1 503.85916151 746.54598516 162.81677229 162.81677229 0 0 1 339.95474657 582.641571v-69.21360762h-75.80537952a22.70865501 22.70865501 0 0 1-22.41202569-18.95134547L166.26155038 47.94997232000003a22.70865501 22.70865501 0 0 1 22.37906645-26.49892378h617.28650324a22.74161424 22.74161424 0 0 1 22.4120257 26.49892379L752.76447784 494.47661791a22.74161424 22.74161424 0 0 1-22.41202492 18.91838622h-62.62183574zM622.31330717 468.04361183v-39.68246835h45.41731001V468.04361183h43.50569639l67.82933569-401.14229482H215.50208841l67.82933571 401.10933636H339.95474657v-39.64950989h45.41731001V468.04361183h236.97420906zM146.12368612 8.23454472000003a55.66751604 55.66751604 0 0 0-12.3595728 45.21955766L209.27286355 499.98074796A55.66751604 55.66751604 0 0 0 264.14936705 546.3538651700001h42.84651927V582.641571A195.77563333 195.77563333 0 0 0 503.85916151 779.50484619a195.77563333 195.77563333 0 0 0 196.8303167-196.86327519v-36.25474736h29.72889242c27.1581009 0 50.32818066-19.61052181 54.87650273-46.40607567l75.50875022-446.5266456A55.66751604 55.66751604 0 0 0 805.92712008-11.5078125H188.64061683c-16.38055395 0-31.97009459 7.25094901-42.51693071 19.74235722zM730.41837063 513.39500413h-62.68775345V582.641571A162.84973077 162.84973077 0 0 1 503.85916151 746.54598516 162.81677229 162.81677229 0 0 1 339.95474657 582.641571v-69.21360762h-75.80537952a22.70865501 22.70865501 0 0 1-22.37906646-18.95134547L166.26155038 47.94997232000003a22.70865501 22.70865501 0 0 1 22.37906645-26.49892378h617.28650324a22.70865501 22.70865501 0 0 1 22.4120257 26.49892379L752.76447784 494.47661791a22.70865501 22.70865501 0 0 1-22.41202492 18.91838622z m-108.10506346-117.99272169a32.95886104 32.95886104 0 0 0-32.95886104 32.95886104v6.69064884h-171.05648698v-6.72360808a32.95886104 32.95886104 0 0 0-32.95886103-32.95886027H339.95474657a32.95886104 32.95886104 0 0 0-31.50867061 23.30191441l-53.92069629-318.8440188h485.51697834l-51.25102862 303.12264196a32.82702562 32.82702562 0 0 0-21.06071221-7.58053757h-45.41731001z m88.89004715 72.60837093l67.86229494-401.14229483H215.50208841l67.82933571 401.10933558H339.95474657v-39.64950988h45.41731001V468.04361183h236.97420906v-39.68246835h45.38435154V468.04361183h43.50569639z m-207.34419281 200.15916074a84.47356049 84.47356049 0 0 1-85.52824389-85.52824311v-36.25474736h171.05648775v36.25474736a84.47356049 84.47356049 0 0 1-85.52824386 85.52824311zM385.37205658 582.641571a117.43242076 117.43242076 0 0 0 118.48710493 118.48710414 117.43242076 117.43242076 0 0 0 118.45414566-118.48710414v-69.21360762h-236.97420905v69.21360762z"  horiz-adv-x="1024" />

    
    <glyph glyph-name="-kefu1" unicode="&#58946;" d="M1024 896H0v-1024h1024V896zM154.496 741.504A504.096 504.096 0 0 0 512 889.6c139.616 0 266.048-56.64 357.504-148.096A504.096 504.096 0 0 0 1017.6 384c0-139.616-56.64-266.048-148.096-357.504A504.096 504.096 0 0 0 512-121.6c-139.616 0-266.048 56.64-357.504 148.096A504.096 504.096 0 0 0 6.4 384c0 139.616 56.64 266.048 148.096 357.504zM512 838.4c-125.472 0-239.04-50.848-321.28-133.12A452.896 452.896 0 0 1 57.6 384c0-125.472 50.848-239.04 133.12-321.28C272.96-19.616 386.496-70.4 512-70.4c125.472 0 239.04 50.816 321.28 133.12 82.304 82.24 133.12 195.808 133.12 321.28 0 125.472-50.816 239.04-133.12 321.28A452.896 452.896 0 0 1 512 838.4zM832 704H192v-640h640V704zM672 516.256a132.256 132.256 0 0 0 0-264.512v51.2a81.056 81.056 0 0 1 0 162.112v51.2zM219.744 384A132.256 132.256 0 0 0 352 516.256v-51.2a81.056 81.056 0 0 1 0-162.112v-51.2A132.256 132.256 0 0 0 219.744 384zM512 625.056a134.4 134.4 0 0 1-134.4-134.4v-213.312a25.6 25.6 0 0 0-51.2 0v213.312a185.6 185.6 0 0 0 371.2 0v-213.312a185.6 185.6 0 0 0-185.6-185.6 25.6 25.6 0 0 0 0 51.2 134.4 134.4 0 0 1 134.4 134.4v213.312a134.4 134.4 0 0 1-134.4 134.4z"  horiz-adv-x="1024" />

    
    <glyph glyph-name="success_no_circle" unicode="&#58948;" d="M89.216 320.971c-6.502 7.224-10.475 15.893-12.642 26.368-1.806 10.475-0.722 20.227 3.973 29.257l4.696 10.475c5.057 8.308 11.558 13.726 19.866 15.893 7.946 2.167 15.893 0.361 23.478-5.418l195.409-140.868c8.308-5.779 17.699-8.669 27.812-8.308 10.114 0.361 18.782 3.612 26.006 10.114l520.488 429.105c7.585 5.779 16.254 8.308 26.006 7.585s18.060-4.334 24.923-10.475l-12.642 12.642c6.502-7.224 9.752-15.17 9.752-24.562 0-9.391-3.251-17.338-9.752-24.562l-560.581-568.528c-7.224-7.224-15.17-10.475-24.2-10.475-9.030 0-16.976 3.251-24.2 9.752l-238.392 242.004z"  horiz-adv-x="1024" />

    
    <glyph glyph-name="jiazaizhong" unicode="&#59054;" d="M256 382.578c0-14.222-12.8-27.022-27.022-27.022H27.022C11.378 355.556 0 368.356 0 382.578V384c0 15.644 12.8 27.022 27.022 27.022h201.956C243.2 412.444 256 399.644 256 385.422v-2.844zM1024 382.578c0-15.645-12.8-27.022-27.022-27.022H795.022c-15.644 0-27.022 12.8-27.022 27.022V384c0 15.644 12.8 27.022 27.022 27.022h200.534c15.644 0 27.022-12.8 27.022-27.022l1.422-1.422zM540.444 667.022c0-14.222-12.8-27.022-27.022-27.022H512c-15.644 0-28.444 12.8-28.444 27.022V868.978c0 15.644 12.8 27.022 27.022 27.022H512c15.644 0 27.022-12.8 27.022-27.022v-201.956h1.422zM540.444-100.978c0-15.644-12.8-27.022-27.022-27.022H512c-15.644 0-27.022 12.8-27.022 27.022V100.978c0 15.644 12.8 27.022 27.022 27.022h1.422c15.645 0 27.022-12.8 27.022-27.022v-201.956zM329.956 564.622c-11.378-11.378-28.445-11.378-38.4 0L149.333 706.844c-11.377 11.378-11.377 28.445 0 38.4l1.423 1.423c11.377 11.377 28.444 11.377 38.4 0l142.222-142.223c11.378-9.955 11.378-28.444-1.422-39.822zM873.244 21.333c-11.377-11.377-28.444-11.377-38.4 0L692.622 163.556c-11.378 11.377-11.378 28.444 0 38.4l1.422 1.422c11.378 11.378 28.445 11.378 38.4 0l142.223-142.222c11.377-9.956 11.377-28.445-1.423-39.823zM732.444 564.622c-11.377-11.378-28.444-11.378-38.4 0l-1.422 1.422c-11.378 11.378-11.378 28.445 0 38.4l142.222 142.223c11.378 11.377 28.445 11.377 38.4 0l1.423-1.423c11.377-11.377 11.377-28.444 0-38.4L732.444 564.622zM189.156 21.333c-11.378-11.377-28.445-11.377-38.4 0l-1.423 1.423c-11.377 11.377-11.377 28.444 0 38.4l142.223 142.222c11.377 11.378 28.444 11.378 38.4 0l1.422-1.422c11.378-11.378 11.378-28.445 0-38.4L189.156 21.333z"  horiz-adv-x="1024" />

    
    <glyph glyph-name="-guanbi1" unicode="&#58949;" d="M566.97558594 374.90332031L856.8828125 664.81054688c14.63378906 14.63378906 14.63378906 38.75976563 0 53.39355468l-1.58203125 1.58203125c-14.63378906 14.63378906-38.75976563 14.63378906-53.39355469 0L512 429.48339844 222.09277344 719.78613281c-14.63378906 14.63378906-38.75976563 14.63378906-53.39355469 0l-1.58203125-1.58203125c-15.02929688-14.63378906-15.02929688-38.75976563 0-53.39355469l289.90722656-289.90722656L167.1171875 84.99609375c-14.63378906-14.63378906-14.63378906-38.75976563 0-53.39355469l1.58203125-1.58203125c14.63378906-14.63378906 38.75976563-14.63378906 53.39355469 0L512 319.92773437000005 801.90722656 30.020507810000026c14.63378906-14.63378906 38.75976563-14.63378906 53.39355469 0l1.58203125 1.58203125c14.63378906 14.63378906 14.63378906 38.75976563 0 53.39355469L566.97558594 374.90332031z"  horiz-adv-x="1024" />

    
    <glyph glyph-name="-GeeMart" unicode="&#58947;" d="M5541.100308-40.014769h-224.728616L5380.726154 788.086154h225.122461l-64.748307-828.022154zM4510.168615-39.699692h-224.728615l49.624615 638.503384h225.122462l-50.018462-638.503384zM4123.096615 598.488615c-172.504615 0-323.584-142.808615-337.447384-319.40923-13.863385-176.679385 114.845538-319.015385 287.350154-319.015385 172.504615 0 323.584 142.729846 337.447384 319.409231 14.336 176.206769-114.451692 319.409231-287.350154 319.015384z m37.809231-458.594461c-68.923077 0-119.886769 61.282462-113.979077 136.743384 5.907692 75.382154 66.481231 136.743385 135.483077 136.743385s119.965538-61.361231 114.057846-136.743385c-5.907692-75.460923-66.481231-136.743385-135.483077-136.743384zM5210.742154 465.762462l10.555077 133.907692h507.825231l-10.476308-133.907692h-507.904zM2880.590769-41.511385h-225.122461l64.748307 829.203693h224.728616l-64.354462-829.203693zM3269.710769-41.511385h-224.649846L2809.856 787.692308h225.122462l234.732307-829.203693zM3434.732308-41.511385h224.649846l64.827077 829.203693h-224.728616l-64.748307-829.203693zM3045.060923-41.511385h225.122462l364.386461 829.203693h-224.728615l-364.701539-829.203693zM2584.733538 299.323077l3.780924 0.787692c-8.822154 166.990769-163.682462 299.323077-356.824616 299.323077-201.097846 0-367.300923-143.596308-371.081846-320.669538-3.780923-177.073231 156.514462-320.590769 357.612308-320.59077 130.441846 0 245.76 60.416 311.847384 150.764308l-118.70523 94.365539c-35.761231-48.364308-100.509538-81.841231-175.025231-84.283077-2.126769 0-9.216-0.393846-9.216-0.393846-46.710154 1.260308-85.464615 37.888-104.369231 90.742153l461.981538 89.954462z m-348.002461 154.466461c47.576615 0 87.512615-37.100308 106.889846-90.742153l-230.557538-44.740923c12.603077 77.430154 63.960615 135.483077 123.667692 135.483076zM1793.732923 299.323077l3.780923 0.787692c-8.822154 166.990769-163.682462 299.323077-356.824615 299.323077-201.097846 0-367.300923-143.596308-371.081846-320.669538-3.780923-177.073231 156.514462-320.590769 357.612307-320.59077 130.441846 0 245.76 60.416 311.847385 150.764308L1620.283077 203.303385c-35.761231-48.364308-100.509538-81.841231-175.025231-84.283077-2.126769 0-9.216-0.393846-9.216-0.393846-46.710154 1.260308-85.464615 37.888-104.369231 90.742153l461.981539 89.954462z m-347.923692 154.466461c47.497846 0 87.433846-37.100308 106.811077-90.742153l-230.557539-44.740923c12.603077 77.036308 63.960615 135.483077 123.667693 135.483076zM477.971692 308.539077l10.161231 133.907692h497.742769l-10.082461-133.907692h-497.821539zM738.540308 375.492923a223.389538 223.389538 0 0 0-15.990154-66.953846h271.36c5.907692 21.819077 10.082462 43.953231 11.815384 66.953846a353.673846 353.673846 0 0 1-1.732923 66.953846H732.632615c5.513846-20.952615 7.561846-43.559385 5.907693-66.953846zM733.026462 442.525538c5.041231-20.952615 7.089231-43.559385 5.513846-66.953846-9.294769-118.153846-111.143385-213.779692-227.249231-213.779692-116.578462 0-203.224615 95.625846-194.008615 213.779692 9.294769 118.153846 111.064615 213.779692 227.24923 213.779693 58.052923 0 108.544-24.260923 143.43877-63.330462l220.08123 122.171077C827.234462 735.704615 703.960615 791.788308 560.049231 791.394462 296.172308 791.788308 67.741538 605.499077 49.624615 375.571692c-18.038154-229.848615 181.799385-416.216615 445.676308-416.216615 263.798154 0 492.701538 186.368 510.424615 416.216615 1.575385 23.000615 0.787692 45.134769-1.732923 66.953846h-270.966153zM4853.523692-39.699692h-224.649846l49.624616 638.503384h224.649846l-49.624616-638.503384zM5186.402462 598.803692c-212.519385 0-398.493538-153.678769-429.607385-348.475077h53.799385c33.240615 86.646154 180.539077 152.812308 352.17723 152.812308 2.993231 0 5.513846 0 8.428308-0.393846l15.202462 196.056615z"  horiz-adv-x="5750" />

    
    <glyph glyph-name="-tuihuan1" unicode="&#58944;" d="M402.816 561.376a25.6 25.6 0 0 0-1.44-36.16l-45.12-41.696 46.496-50.112a25.6 25.6 0 1 0-37.504-34.816l-64 68.928a25.6 25.6 0 0 0 1.376 36.224l64 59.072a25.6 25.6 0 0 0 36.16-1.44zM326.4 480a25.6 25.6 0 0 0 25.6 25.6h224.832c81.216 0 149.504-66.368 152.64-147.68 3.36-85.952-66.88-159.52-152.64-159.52h-166.176a25.6 25.6 0 1 0 0 51.2h166.176c56.448 0 103.68 49.12 101.504 106.336-2.112 54.144-48.128 98.464-101.504 98.464H352a25.6 25.6 0 0 0-25.6 25.6zM154.496 741.504A504.096 504.096 0 0 1 6.4 384c0-139.616 56.64-266.048 148.096-357.504A504.096 504.096 0 0 1 512-121.6c139.616 0 266.048 56.64 357.504 148.096A504.096 504.096 0 0 1 1017.6 384c0 139.616-56.64 266.048-148.096 357.504A504.096 504.096 0 0 1 512 889.6C372.384 889.6 245.952 832.96 154.496 741.504zM512 838.4c125.472 0 239.04-50.848 321.28-133.12C915.616 623.04 966.4 509.504 966.4 384c0-125.472-50.816-239.04-133.12-321.28A452.896 452.896 0 0 0 512-70.4c-125.472 0-239.04 50.816-321.28 133.12A452.896 452.896 0 0 0 57.6 384c0 125.472 50.848 239.04 133.12 321.28C272.96 787.584 386.496 838.4 512 838.4z"  horiz-adv-x="1024" />

    
    <glyph glyph-name="-yunshu" unicode="&#58945;" d="M304.576 247.264a75.04 75.04 0 1 0 150.08 0 75.04 75.04 0 0 0-150.08 0z m75.04 23.84a23.872 23.872 0 1 1 0-47.68 23.872 23.872 0 0 1 0 47.68zM588.928 247.264a75.072 75.072 0 1 0 150.112 0 75.072 75.072 0 0 0-150.08 0z m75.072 23.84a23.872 23.872 0 1 1 0-47.68 23.872 23.872 0 0 1 0 47.68zM230.4 544a25.6 25.6 0 0 0 25.6 25.6h358.56a25.6 25.6 0 0 0 25.6-25.6v-296.736a25.6 25.6 0 0 0-25.6-25.6H429.12a25.6 25.6 0 0 0 0 51.2h159.872V518.4H281.6v-245.536h48.576a25.6 25.6 0 1 0 0-51.2H256a25.6 25.6 0 0 0-25.6 25.6V544zM588.928 457.44a25.6 25.6 0 0 0 25.6 25.6h105.984a25.6 25.6 0 0 0 20.416-10.176l79.488-105.088a25.6 25.6 0 0 0 5.184-15.424v-105.088a25.6 25.6 0 0 0-25.6-25.6h-76.512a25.6 25.6 0 0 0 0 51.2h50.88v70.88l-66.592 88.096h-67.648v-184.576a25.6 25.6 0 0 0-51.2 0v210.176zM154.496 741.504A504.096 504.096 0 0 0 512 889.6c139.616 0 266.048-56.64 357.504-148.096A504.096 504.096 0 0 0 1017.6 384c0-139.616-56.64-266.048-148.096-357.504A504.096 504.096 0 0 0 512-121.6c-139.616 0-266.048 56.64-357.504 148.096A504.096 504.096 0 0 0 6.4 384c0 139.616 56.64 266.048 148.096 357.504zM512 838.4c-125.472 0-239.04-50.848-321.28-133.12A452.896 452.896 0 0 1 57.6 384c0-125.472 50.848-239.04 133.12-321.28C272.96-19.616 386.496-70.4 512-70.4c125.472 0 239.04 50.816 321.28 133.12 82.304 82.24 133.12 195.808 133.12 321.28 0 125.472-50.816 239.04-133.12 321.28A452.896 452.896 0 0 1 512 838.4z"  horiz-adv-x="1024" />

    
    <glyph glyph-name="-fenlei1" unicode="&#58942;" d="M1121.37500037 726.18750009H277.62500037V791.81249973h843.75v-65.62499964zM90.125 791.81249973h93.75000019v-65.62499964H90.125V791.81249973zM1121.37500037 351.18750019000004H277.62500037V416.81249981h843.75v-65.62499962zM90.125 416.81249981h93.75000019v-65.62499962H90.125V416.81249981zM1121.37500037-23.812499730000013H277.62500037v65.62499964h843.75v-65.62499964zM90.125 41.81249991000004h93.75000019v-65.62499964H90.125v65.62499964z"  horiz-adv-x="1251" />

    
    <glyph glyph-name="-youjian" unicode="&#58941;" d="M1024 896H0v-1024h1024V896zM85.333333 64h853.333334v640H85.333333v-640zM42.666667 704a42.666667 42.666667 0 0 0 42.666666 42.666667h853.333334a42.666667 42.666667 0 0 0 42.666666-42.666667v-640a42.666667 42.666667 0 0 0-42.666666-42.666667H85.333333a42.666667 42.666667 0 0 0-42.666666 42.666667v640z m85.333333-42.666667v-554.666666h768v554.666666H128zM51.2 729.6a42.666667 42.666667 0 0 0 59.733333 8.533333l401.066667-300.8 401.066667 300.8a42.666667 42.666667 0 0 0 51.2-68.266666l-426.666667-320a42.666667 42.666667 0 0 0-51.2 0l-426.666667 320a42.666667 42.666667 0 0 0-8.533333 59.733333zM42.666667 704a42.666667 42.666667 0 0 0 42.666666 42.666667h426.666667a42.666667 42.666667 0 1 0 0-85.333334H128V384a42.666667 42.666667 0 1 0-85.333333 0V704zM469.333333 704a42.666667 42.666667 0 0 0 42.666667 42.666667h426.666667a42.666667 42.666667 0 0 0 42.666666-42.666667V384a42.666667 42.666667 0 1 0-85.333333 0V661.333333h-384a42.666667 42.666667 0 0 0-42.666667 42.666667z"  horiz-adv-x="1024" />

    
    <glyph glyph-name="guanbi" unicode="&#58928;" d="M512 384m-460.8 0a460.8 460.8 0 1 1 921.6 0 460.8 460.8 0 1 1-921.6 0ZM677.461333 200.96L324.010667 554.410667l17.578666 17.578666 353.450667-353.450666-17.578667-17.578667zM324.010667 218.538667l353.450666 353.450666 17.578667-17.578666-353.450667-353.450667-17.578666 17.578667z"  horiz-adv-x="1024" />

    
    <glyph glyph-name="-paypal2" unicode="&#58943;" d="M292.096 155.03999999999996h-43.712c-2.944 0-5.888-1.952-5.888-6.816L224 16.03200000000004c0-1.92 1.696-3.424 2.944-3.424h21.024c2.944 0 5.888 1.952 5.888 6.816l5.888 36.96c0 3.392 2.944 6.784 5.888 6.784h15.136c28.576 0 47.072 17.504 51.712 49.088 1.664 14.08 0 24.8-5.888 33.536-7.168 5.344-17.664 9.248-34.496 9.248z m4.64-47.648c-1.696-19.424-15.136-19.424-27.328-19.424h-7.584l5.888 33.536c0 1.92 1.696 5.344 2.944 5.344h2.944c7.584 0 16.832 0 19.776-6.816 3.36-1.92 5.056-7.296 3.36-12.64z m130.336 0h-21.024c-1.696 0-2.944-1.92-2.944-3.392l-1.696-6.816-1.664 1.952c-5.888 8.768-15.136 10.688-25.664 10.688-24.352 0-44.16-20.896-47.072-51.04-1.696-14.08 0-28.16 7.584-38.88 7.552-8.736 16.8-12.16 27.328-12.16 10.496 0 20.992 3.424 28.576 14.112l-1.696-6.784c0-1.952 1.696-3.424 2.944-3.424h19.776c2.944 0 5.888 1.92 5.888 6.816l10.496 84.576c2.112 2.432 0.864 4.352-0.832 4.352z m-31.968-49.088c-1.664-14.08-12.16-22.848-24.384-22.848a19.456 19.456 0 0 0-15.136 6.816c-2.944 3.392-2.944 10.688-2.944 17.504 1.696 14.08 12.224 22.848 24.416 22.848 5.856 0 10.496-1.952 15.136-6.816 2.912-5.344 6.304-10.688 2.912-17.504z m147.168 49.088h-21.024c-1.696 0-2.944-1.92-5.888-1.92l-28.576-51.04-12.192 49.088c0 1.92-2.944 3.392-5.888 3.392H447.68c-1.696 0-2.944-1.92-2.944-3.392v-1.952l24.384-80.672-21.024-36.96c-1.696-1.92 0-3.392 0-6.784h24.384c1.696 0 2.944 1.92 5.888 1.92l71.04 121.536c-4.192 1.44-5.44 4.864-7.136 6.784zM613.344 155.03999999999996h-45.44c-2.912 0-5.856-1.952-5.856-6.816l-18.08-133.664c0-1.92 1.664-3.392 2.944-3.392h24.384c1.664 0 2.944 1.92 2.944 3.392l5.888 38.88c0 3.424 2.944 6.816 5.888 6.816h15.136c28.576 0 47.072 17.504 51.712 49.088 1.664 14.08 0 24.8-5.888 33.536-7.584 8.256-18.08 12.16-33.632 12.16z m6.304-47.648c-1.696-19.424-15.136-19.424-27.328-19.424h-7.584l5.888 33.536c0 1.92 1.696 3.392 2.944 3.392h2.944c7.584 0 16.832 0 19.776-6.816 3.36 0 3.36-5.344 3.36-10.688z m127.36 0h-20.992c-1.696 0-2.944-1.92-2.944-3.392l-1.696-6.816-1.664 1.952c-5.888 8.768-15.136 10.688-25.664 10.688-24.384 0-44.16-20.896-47.072-51.04-1.696-14.08 0-28.16 7.552-38.88 7.584-8.736 16.832-12.16 27.328-12.16 10.528 0 21.024 3.424 28.608 14.112l-1.696-6.816c0-1.92 1.696-3.392 2.944-3.392h19.776c2.912 0 5.856 1.92 5.856 6.816l10.528 84.576c3.776 2.432 3.776 4.352-0.832 4.352z m-28.992-49.088c-1.664-14.08-12.16-22.848-24.384-22.848a19.456 19.456 0 0 0-15.136 6.816c-2.944 3.392-2.944 10.688-2.944 17.504 1.696 14.08 12.192 22.848 24.384 22.848 5.888 0 10.528-1.952 15.136-6.816 2.944-5.344 2.944-10.688 2.944-17.504z m54.656 92.832l-18.08-135.104c0-1.92 1.696-3.424 2.944-3.424h18.08c2.944 0 5.888 1.952 5.888 6.816l18.08 133.664c0 1.92-1.664 3.392-2.944 3.392h-19.744c-2.56-1.44-4.224-3.392-4.224-5.344zM443.872 225.024l9.28 65.12H339.616l63.04 478.272c0 1.92 0 1.92 1.696 5.344 0 0 1.696 1.92 4.64 1.92h157.664c52.96 0 87.872-14.08 107.616-38.848 7.584-10.72 13.44-22.848 18.08-36.96a278.848 278.848 0 0 0 0-52.96v-16.064l9.28-5.344c5.856-5.344 13.44-8.736 18.048-16 7.584-10.72 13.44-22.88 15.136-38.912 1.696-17.504 1.696-36.928-1.664-54.432-4.64-22.848-9.28-42.304-19.776-61.728-7.552-16.032-18.08-29.664-31.936-38.88a203.904 203.904 0 0 0-40.8-22.848 166.624 166.624 0 0 0-50.016-6.816h-18.08c-18.08 0-33.216-16-36.576-36.928v-5.824l-15.136-112.288v-5.344s0-1.92-1.696-1.92h-1.664c0.416 3.392-73.6 1.44-73.6 1.44zM722.624 645.44c0-5.344-1.664-6.816-1.664-12.16-22.72-131.712-95.456-173.984-189.632-173.984h-48.32c-12.224 0-19.776-8.768-22.72-22.848l-24.384-182.72-5.888-52.992c-1.696-6.816 4.608-14.112 10.496-16.064h87.872c10.528 0 18.08 8.768 19.776 20.896v5.376l16.8 119.552 1.696 6.816c1.696 12.16 10.496 20.896 19.776 20.896h11.744c83.264 0 145.472 40.32 166.912 153.088 7.584 47.648 4.64 88-16.8 114.24-8.832 7.264-15.136 14.56-25.664 19.904zM699.936 655.648c-4.64 0-5.888 1.92-10.528 1.92-4.608 0-7.552 1.952-10.496 1.952-13.44 1.952-28.576 5.376-42.464 5.376H509.056c-10.528 0-18.08-8.768-19.776-20.928l-25.632-202.656v-5.344c1.664 14.08 12.192 22.848 22.72 22.848h48.32c94.208 0 168.192 43.744 189.632 173.984 0 5.344 1.664 6.816 1.664 12.16-5.856 1.92-12.16 6.784-18.08 8.736l-8 1.92s0-1.44 0 0zM489.28 641.568c1.696 12.16 10.528 20.896 19.776 20.896h127.392c13.44 0 28.576 0 42.464-5.344 4.64 0 7.584-1.952 10.528-1.952 4.608 0 5.856-1.952 10.496-1.952l4.64-1.92c5.856-1.952 12.16-5.376 18.048-8.768 5.888 47.616 0 80.672-22.688 108.864C675.552 785.92 630.144 800 574.24 800h-164c-12.16 0-19.744-8.736-22.688-22.848l-66.432-502.56c-1.664-8.736 4.64-16.032 12.192-19.424h103.04l25.6 186.144c1.696 0 27.36 200.256 27.36 200.256z"  horiz-adv-x="1024" />

    
    <glyph glyph-name="dagou-1" unicode="&#58938;" d="M512 76a308 308 0 1 0 0 616 308 308 0 0 0 0-616zM512 32c194.4 0 352 157.6 352 352S706.4 736 512 736 160 578.4 160 384s157.6-352 352-352zM725.376 495.84l-245.92-269.44-143.904 126.976 29.12 32.992 111.456-98.336 216.768 237.472 32.48-29.664z"  horiz-adv-x="1024" />

    
    <glyph glyph-name="dagou1" unicode="&#58940;" d="M512 384m-352 0a352 352 0 1 1 704 0 352 352 0 1 1-704 0ZM725.376 495.84l-245.92-269.44-143.904 126.976 29.12 32.992 111.456-98.336 216.768 237.472 32.48-29.664z"  horiz-adv-x="1024" />

    
    <glyph glyph-name="geecasual" unicode="&#58933;" d="M5784.868571 620.690286h-235.52l-33.158095-450.218667a108.739048 108.739048 0 0 0-107.910095-100.742095 108.641524 108.641524 0 0 0-108.641524 116.638476l32.036572 434.224762h-235.471239l-32.621714-436.077714a243.516952 243.516952 0 0 1 242.736762-261.510096h200.655238a243.321905 243.321905 0 0 1 242.736762 225.182477l35.157333 472.502857zM4257.499429-76.848762l-235.471239-0.097524 52.175239 697.636572h235.471238l-52.175238-697.539048zM3852.04419 620.592762c-180.809143 0-338.992762-156.233143-353.377523-348.842667-14.384762-192.609524 120.441905-348.745143 301.202285-348.647619 180.809143 0 338.895238 156.135619 353.377524 348.793905 14.482286 192.658286-120.441905 348.793905-301.202286 348.696381z m39.350858-501.223619c-71.92381 0-125.805714 66.852571-119.661715 149.357714 6.192762 82.553905 69.729524 149.455238 141.945905 149.455238 72.265143 0 125.805714-66.80381 119.661714-149.357714-6.192762-82.505143-69.729524-149.455238-141.945904-149.455238zM6628.303238-76.848762l-235.422476-0.097524 52.126476 697.636572h235.471238l-52.175238-697.539048zM6222.848 620.592762c-180.760381 0-338.992762-156.233143-353.377524-348.842667-14.384762-192.609524 120.441905-348.745143 301.251048-348.647619 180.760381 0 338.992762 156.135619 353.377524 348.793905 14.384762 192.658286-120.539429 348.793905-301.251048 348.696381z m39.350857-501.223619c-71.92381 0-125.805714 66.852571-119.612952 149.357714 6.192762 82.553905 69.680762 149.455238 141.994666 149.455238 72.313905 0 125.756952-66.80381 119.661715-149.357714-6.144-82.505143-69.778286-149.455238-142.043429-149.455238zM2656.158476 292.815238l3.949714 0.828952c-9.313524 182.564571-171.544381 327.094857-374.101333 327.046096-210.748952 0-384.731429-156.91581-388.486095-350.354286-3.705905-193.438476 163.888762-350.208 374.686476-350.208 136.679619 0 257.219048 66.023619 326.607238 164.961524l-124.342857 102.985143c-37.449143-53.052952-105.325714-89.234286-183.198476-92.16h-9.849905c-48.713143 1.414095-89.478095 41.447619-109.470476 99.08419l484.205714 97.865143z m-364.592762 169.008762c49.737143 0 91.672381-40.423619 112.006096-98.986667l-241.566477-49.005714c13.604571 84.358095 67.047619 147.943619 129.755429 147.992381h-0.195048zM1827.888762 292.62019l4.047238 0.877715c-9.411048 182.564571-171.593143 327.046095-374.101333 327.046095-210.797714 0-384.731429-156.91581-388.486096-350.45181-3.754667-193.487238 163.888762-350.208 374.686477-350.110476 136.679619 0 257.26781 66.023619 326.704762 164.961524l-124.39162 102.936381c-37.546667-53.101714-105.325714-89.234286-183.247238-92.16-2.389333 0-9.752381-0.341333-9.752381-0.341333-48.810667 1.462857-89.624381 41.447619-109.616761 99.132952l484.10819 98.108952h0.048762zM1463.344762 461.628952c49.785905 0 91.672381-40.472381 112.006095-98.986666l-241.468952-48.908191c13.019429 84.21181 66.755048 147.894857 129.462857 147.894857zM449.487238 302.86019l10.971429 146.383239 521.362285 0.146285-10.971428-146.383238-521.362286-0.146286zM722.456381 376.100571a256.341333 256.341333 0 0 0-16.676571-73.142857H989.866667c6.339048 23.893333 10.48381 48.420571 12.531809 73.142857 1.706667 24.380952 1.170286 48.90819-1.560381 73.240381h-284.184381c5.656381-23.990857 7.606857-48.713143 5.753905-73.240381zM716.702476 449.340952c5.656381-23.990857 7.606857-48.713143 5.753905-73.240381-9.654857-129.024-116.248381-233.569524-238.201905-233.569523-121.904762 0-212.796952 104.496762-203.142095 233.569523 9.606095 129.024 116.053333 233.667048 238.396952 233.667048a196.510476 196.510476 0 0 0 150.430477-69.095619l230.204952 133.607619c-84.358095 95.573333-213.723429 156.672-364.251429 156.623238-276.48 0-515.900952-203.727238-534.723047-454.948571-18.773333-251.221333 190.171429-454.753524 466.748952-454.704762 276.528762 0.097524 515.900952 203.776 534.674286 454.948571 1.657905 24.380952 1.170286 48.859429-1.560381 73.191619l-284.330667-0.097524zM6993.92-81.822476l-235.471238-0.097524L6835.004952 896 7070.47619 896l-76.55619-977.822476zM3400.801524 226.986667a3.998476 3.998476 0 0 1-2.584381 3.998476 3.949714 3.949714 0 0 1-4.583619-1.462857c-44.470857-53.101714-108.934095-87.088762-178.322286-87.088762-121.904762 0-212.894476 104.496762-203.239619 233.569524 9.606095 129.072762 116.248381 233.764571 238.104381 233.764571a196.217905 196.217905 0 0 0 143.847619-61.537524 3.949714 3.949714 0 0 1 7.216762 2.828191v262.826666c-43.690667 11.410286-88.697905 17.115429-133.851429 17.017905-276.577524 0-515.998476-203.727238-534.771809-454.948571-18.773333-251.221333 190.22019-454.753524 466.748952-454.704762a563.2 563.2 0 0 1 201.874286 37.546666l-0.390095 268.190477zM4872.582095 315.14819c-29.891048 24.478476-67.291429 37.254095-106.154666 49.152l-9.020953 2.29181c-23.79581 6.095238-63.585524 16.335238-77.190095 26.965333a18.919619 18.919619 0 0 0-6.729143 14.384762c0.633905 18.724571 23.893333 41.74019 54.369524 44.519619 29.208381 2.681905 83.675429-1.560381 122.294857-21.552762l12.190476-6.339047 6.582857 12.288 60.65981 121.222095 6.631619 12.385524-12.678095 5.753905a476.013714 476.013714 0 0 1-198.119619 41.203809c-83.968 0-155.40419-21.552762-206.555429-63.292952-51.151238-41.74019-80.457143-101.912381-82.797714-173.29981a157.744762 157.744762 0 0 1 60.562286-132.632381c30.232381-24.722286 88.990476-47.299048 119.271619-54.857143 55.198476-13.458286 65.243429-17.16419 73.679238-25.35619a31.50019 31.50019 0 0 0 5.022476-20.48c-1.219048-19.163429-22.625524-33.206857-56.466286-36.766476-44.81219-4.632381-111.274667 0-165.449143 35.986285l-12.824381 8.777143-7.168-13.945904-72.947809-126.537143-5.851429-11.020191 10.386286-6.339047c80.067048-49.493333 160.036571-73.532952 244.589714-73.630477 182.02819 0 302.811429 96.938667 307.833905 247.612953 1.414095 74.215619-33.938286 119.125333-64.121905 143.506285z"  horiz-adv-x="7070" />

    
    <glyph glyph-name="geerunning" unicode="&#58934;" d="M5207.332571 643.267048c-123.318857 0-231.277714-106.593524-241.127619-238.055619-9.898667-131.462095 82.212571-238.104381 205.531429-238.104381s231.277714 106.544762 241.127619 238.006857c9.801143 131.462095-82.212571 238.153143-205.531429 238.153143z m26.86781-342.016c-49.054476 0-85.820952 45.641143-81.676191 101.912381 4.193524 56.222476 47.640381 101.912381 96.889905 101.912381 49.298286 0 85.869714-45.592381 81.676191-101.912381-4.242286-56.271238-47.591619-101.814857-96.889905-101.912381zM1812.72381 421.741714l2.779428 0.536381c-6.436571 124.635429-117.077333 223.232-255.268571 223.183238-143.847619 0-262.582857-107.081143-265.069715-239.079619-2.535619-131.998476 111.811048-238.933333 255.561143-238.933333 93.281524 0 175.542857 45.104762 222.939429 112.591238l-84.845714 70.217143c-25.551238-36.181333-71.875048-60.903619-125.074286-62.902857-1.609143 0-6.680381-0.24381-6.680381-0.24381-33.206857 0.975238-61.098667 28.281905-74.703238 67.681524l330.264381 66.950095h0.097524z m-248.685715 115.321905c33.889524 0 62.415238-27.599238 76.409905-67.535238l-164.815238-33.450667c9.020952 57.539048 45.494857 100.985905 88.356571 100.985905zM1247.47581 421.64419l2.681904 0.536381c-6.339048 124.586667-117.028571 223.183238-255.268571 223.183239-143.847619 0-262.485333-107.081143-265.069714-239.07962-2.535619-131.998476 111.908571-239.225905 255.75619-239.225904 93.281524 0 175.542857 45.104762 222.841905 112.591238l-84.845714 70.558476c-25.551238-36.278857-71.875048-60.952381-124.976762-62.951619-1.609143 0-6.729143-0.24381-6.729143-0.24381-33.255619 0.975238-61.049905 28.281905-74.703238 67.632762l330.313143 66.998857zM998.64381 536.917333c33.987048 0 62.512762-27.550476 76.409904-67.486476l-164.815238-33.450667c9.118476 57.539048 45.592381 100.937143 88.405334 100.937143zM306.858667 428.617143l7.460571 99.864381 355.766857 0.097524-7.460571-99.913143H306.858667zM493.129143 478.598095a175.104 175.104 0 0 0-11.361524-49.980952h193.926095a292.08381 292.08381 0 0 1 8.533334 49.980952 280.868571 280.868571 0 0 1-1.072762 49.932191h-193.926096c3.900952-16.335238 5.168762-33.158095 3.900953-49.932191zM489.22819 528.530286c3.900952-16.335238 5.168762-33.158095 3.900953-49.932191-6.582857-88.064-79.335619-159.451429-162.474667-159.451428-83.18781 0-145.310476 71.338667-138.630095 159.353904 6.582857 88.015238 79.286857 159.451429 162.474667 159.451429a134.192762 134.192762 0 0 0 102.643809-47.055238l157.062095 91.136C556.568381 747.227429 468.406857 788.918857 365.714286 788.918857 177.005714 788.918857 13.653333 649.849905 0.78019 478.45181c-12.775619-171.349333 129.755429-310.320762 318.464-310.272 188.708571 0 352.060952 138.971429 364.885334 310.418285a280.868571 280.868571 0 0 1-1.072762 49.932191l-193.828572-0.048762zM2009.673143 167.497143l-160.670476-0.097524 48.859428 621.470476 160.719238 0.097524-48.90819-621.519238zM2180.632381 788.918857h-178.273524l-7.460571-99.864381h125.318095a90.89219 90.89219 0 0 0 90.648381-97.621333 90.940952 90.940952 0 0 0-90.648381-84.163048h-208.067048l-7.558095-99.961905h275.992381a190.854095 190.854095 0 0 1 190.317714 176.713143 190.756571 190.756571 0 0 1-190.22019 204.848762zM2928.103619 643.267048h-160.670476l-22.625524-307.2a74.166857 74.166857 0 0 0-73.630476-68.705524 74.069333 74.069333 0 0 0-74.410667 79.676952l21.845334 296.326095h-160.670477l-22.235428-297.545142a166.034286 166.034286 0 0 1 165.936762-178.712381h136.97219a166.083048 166.083048 0 0 1 165.595429 153.6l23.893333 322.56zM2983.643429 167.107048h160.670476l22.674285 307.2a74.020571 74.020571 0 0 0 73.630477 68.705523 74.069333 74.069333 0 0 0 74.118095-79.530666l-21.74781-296.423619h160.670477l22.28419 297.545143a166.13181 166.13181 0 0 1-165.64419 178.663619h-136.972191a166.083048 166.083048 0 0 1-165.546667-153.697524l-24.137142-322.462476zM3557.473524 167.107048h160.670476l22.674286 307.2a74.020571 74.020571 0 0 0 73.630476 68.705523 74.118095 74.118095 0 0 0 74.118095-79.530666l-21.796571-296.423619h160.670476l22.28419 297.545143a166.034286 166.034286 0 0 1-165.595428 178.663619h-137.020953a166.034286 166.034286 0 0 1-165.546666-153.697524l-24.088381-322.462476zM4399.640381 167.107048h160.670476l22.625524 307.2a74.069333 74.069333 0 1 0 147.748571-10.825143l-21.747809-296.423619h160.621714l22.235429 297.545143a166.034286 166.034286 0 0 1-165.497905 178.663619h-136.972191a166.083048 166.083048 0 0 1-165.595428-153.697524l-24.088381-322.462476zM4290.657524 167.350857h-160.670476l38.180571 479.378286 160.670476 0.048762-38.180571-479.427048zM4310.893714 719.969524c35.693714 33.645714 40.374857 86.747429 10.386286 118.491428-29.988571 31.792762-83.18781 30.232381-118.881524-3.413333-35.693714-33.645714-40.374857-86.747429-10.386286-118.491429 29.988571-31.792762 83.18781-30.232381 118.881524 3.413334zM2209.840762 169.447619h157.842286l-143.262477 266.630095-157.842285 0.048762 143.262476-266.727619zM5349.424762 643.267048l-36.766476-513.462858a99.864381 99.864381 0 0 0-99.474286-92.647619 99.864381 99.864381 0 0 0-96.743619 75.337143h-155.062857a259.998476 259.998476 0 0 1 255.268571-209.578666 260.144762 260.144762 0 0 1 259.462095 242.492952L5510.095238 643.31581h-160.670476z"  horiz-adv-x="5510" />

    
    <glyph glyph-name="geeswim" unicode="&#58935;" d="M3515.323733 545.889524h-222.646857l171.836953-659.504762 222.646857 0.097524L3515.323733 545.889524zM3996.2624 545.987048h-188.611048l-308.662857-659.504762h188.562286l308.662857 659.504762zM4275.082971 545.889524h222.695619L4212.57021-113.566476l-222.646858 0.097524L4275.082971 545.889524zM3807.8464 545.987048h188.611048l181.833142-659.504762h-188.659809L3807.8464 545.987048zM3144.099352 348.598857c-35.05981 28.769524-81.627429 44.568381-130.291809 59.489524l-11.556572 3.023238c-49.103238 12.678095-95.232 25.453714-117.662476 43.008a62.805333 62.805333 0 0 0-23.015619 49.005714c1.462857 41.593905 37.888 62.70781 100.156953 68.461715 8.143238 0.731429 17.115429 1.072762 26.624 1.072762 19.797333 0 84.358095-2.048 141.897142-26.380191l71.875048 157.013333a612.937143 612.937143 0 0 1-233.667048 44.373334h-0.78019c-104.350476 0-192.414476-26.672762-254.585905-77.141334-62.171429-50.468571-95.232-121.124571-98.011428-206.409142-2.048-59.977143 20.967619-110.153143 68.022857-149.211429 33.987048-27.940571 108.251429-57.197714 146.285714-66.657524 75.922286-18.529524 94.695619-28.281905 116.248381-43.495619 23.356952-16.676571 18.090667-51.687619 14.823619-58.563048-19.504762-42.081524-82.602667-59.733333-144.188952-61.244952-49.834667-1.462857-140.873143 19.504762-193.536 44.568381l-79.920762-158.963809c96.597333-56.466286 193.097143-84.016762 294.521905-84.163048h0.78019c110.884571 0 204.995048 28.42819 272.091429 82.163809 65.974857 52.809143 102.4 127.561143 105.325714 216.161524 2.730667 84.845714-37.254095 136.192-71.436191 163.84zM2511.754971 238.933333l3.754667 0.780191c-8.874667 172.665905-162.279619 309.296762-353.718857 309.199238-199.338667 0-363.76381-148.333714-367.323429-331.239619-3.559619-182.954667 154.965333-331.142095 354.255238-331.142095 129.219048 0 243.175619 62.512762 308.809143 156.038095l-117.613714 97.328762c-35.352381-50.224762-99.474286-84.406857-173.153524-87.137524-2.29181 0-9.362286-0.390095-9.362285-0.390095-46.031238 1.365333-84.601905 39.253333-103.521524 93.769143l457.728 92.793904h0.146285z m-344.746666 159.792762c47.055238 0 86.649905-38.229333 105.910857-93.622857l-228.352-46.323809c12.580571 79.774476 63.146667 139.946667 122.441143 139.946666zM1728.638781 238.787048l3.803429 0.78019c-8.923429 172.617143-162.230857 309.296762-353.718858 309.199238-199.241143 0-363.76381-148.333714-367.323428-331.239619-3.559619-182.905905 154.965333-331.190857 354.255238-331.093333 129.219048 0 243.224381 62.415238 308.857905 155.940571L1556.996876 139.702857c-35.449905-50.224762-99.620571-84.455619-173.251047-87.186286-2.29181 0-9.264762-0.341333-9.264762-0.341333-46.08 1.365333-84.699429 39.253333-103.521524 93.720381l457.728 92.842667z m-344.892952 159.744c47.006476 0 86.601143-38.180571 105.910857-93.525334l-228.400762-46.323809c12.580571 79.62819 63.097905 139.849143 122.489905 139.849143zM425.135543 248.441905l10.337524 138.386285 492.934095 0.146286-10.337524-138.435047-492.982857-0.048762zM683.183543 317.68381a242.736762 242.736762 0 0 0-15.701333-69.241905h268.678095c5.948952 22.723048 9.947429 45.884952 11.897905 69.241905a383.512381 383.512381 0 0 1-1.560381 69.241904H677.819733c5.36381-22.674286 7.119238-46.031238 5.36381-69.241904zM677.770971 386.925714c5.36381-22.674286 7.168-46.031238 5.412572-69.241904-8.923429-122.002286-109.909333-221.232762-225.133714-221.232762s-201.289143 99.181714-191.878096 221.135238C275.534019 439.53981 375.788495 538.575238 491.012876 538.575238a186.270476 186.270476 0 0 0 142.433524-65.243428l217.673143 126.48838c-79.774476 90.307048-202.069333 148.138667-344.356572 148.041143-261.510095 0-487.862857-192.609524-505.660952-430.08-17.700571-237.470476 179.931429-430.031238 441.344-429.982476 261.510095 0.097524 487.862857 192.658286 505.660952 430.177524a383.512381 383.512381 0 0 1-1.609142 69.193143l-268.726858-0.292572zM4887.337448-113.615238h222.646857l31.353905 425.691428a102.741333 102.741333 0 0 0 102.009904 95.232 102.692571 102.692571 0 0 0 102.64381-110.250666l-30.281143-410.672762h222.646857l30.817524 412.281905a230.009905 230.009905 0 0 1-229.424762 247.222857h-189.635048a230.15619 230.15619 0 0 1-229.473523-212.943238l-33.304381-446.561524zM5315.466971-113.615238h222.354286l31.353905 425.691428a102.790095 102.790095 0 0 0 102.058667 95.232 102.692571 102.692571 0 0 0 102.692571-110.250666l-30.281143-410.672762h222.646857l30.817524 412.281905a230.936381 230.936381 0 0 1-12.288 93.184 229.961143 229.961143 0 0 1-217.234286 154.087619h-188.952381a230.058667 230.058667 0 0 1-229.424761-212.992l-33.743239-446.561524zM4742.51459-113.517714l-222.646857-0.097524 52.857905 664.283428 222.695619 0.097524-52.906667-664.283428zM4770.552686 652.092952c49.444571 46.665143 55.881143 120.149333 14.336 164.181334-41.545143 44.032-115.273143 41.935238-164.766476-4.778667-49.444571-46.616381-55.881143-120.149333-14.336-164.181333 41.545143-44.032 115.273143-41.886476 164.766476 4.778666z"  horiz-adv-x="5998" />

    
    <glyph glyph-name="geehike" unicode="&#58936;" d="M2464.085333 224.743619l3.754667 0.731429c-8.777143 169.447619-159.158857 303.494095-347.038476 303.396571-195.535238 0-356.985905-145.554286-360.350476-324.998095-3.413333-179.44381 151.990857-324.900571 347.477333-324.900572 126.780952 0 238.640762 61.342476 303.055238 153.112381l-115.370667 95.47581c-34.718476-49.249524-97.718857-82.797714-169.935238-85.479619a272.091429 272.091429 0 0 1-9.167238-0.390095c-45.153524 1.316571-83.090286 38.521905-101.571047 92.013714l449.048381 91.038476h0.097523z m-338.163809 156.769524c46.177524 0 85.040762-37.497905 103.960381-91.818667l-224.158476-45.446095c12.385524 78.214095 62.025143 137.264762 120.198095 137.264762zM5213.866667 224.743619l3.657143 0.731429c-8.679619 169.447619-159.158857 303.494095-347.038477 303.396571-195.535238 0-356.937143-145.554286-360.399238-324.998095-3.462095-179.44381 152.039619-324.900571 347.574857-324.900572 126.829714 0 238.592 61.342476 303.006477 153.112381l-115.419429 95.47581c-34.669714-49.249524-97.621333-82.797714-169.886476-85.479619-2.194286 0-9.167238-0.390095-9.167238-0.390095-45.153524 1.316571-82.992762 38.521905-101.571048 92.013714l449.097143 91.038476h0.146286z m-338.261334 156.769524c46.177524 0 85.040762-37.497905 103.911619-91.818667l-224.01219-45.446095c12.336762 78.214095 61.927619 137.264762 120.100571 137.264762zM1695.597714 224.597333l3.657143 0.731429c-8.679619 169.398857-159.158857 303.445333-347.038476 303.445333-195.535238 0-356.937143-145.603048-360.350476-325.046857-3.510857-179.44381 151.990857-324.949333 347.526095-324.900571 126.829714 0 238.640762 61.293714 303.104 153.063619l-115.419429 95.573333c-34.767238-49.249524-97.670095-82.895238-169.984-85.577143-2.194286 0-9.118476-0.341333-9.118476-0.341333-45.202286 1.316571-83.041524 38.521905-101.571047 91.964952l449.097142 91.087238h0.097524z m-338.212571 156.720762c46.177524 0 84.992-37.449143 103.862857-91.769905l-224.01219-45.446095c12.336762 78.165333 61.927619 137.216 120.149333 137.216zM416.914286 234.105905l10.093714 135.753143 483.718095 0.097523-10.24-135.801904-483.620571-0.048762zM2662.546286 205.141333l10.142476 135.801905 483.669333 0.048762-10.191238-135.801905-483.620571-0.048762zM670.086095 302.08c-1.706667-23.30819-6.826667-46.226286-15.213714-67.974095h263.606857c5.851429 22.235429 9.752381 45.007238 11.605333 67.925333 1.462857 22.674286 0.975238 45.348571-1.609142 67.925333h-263.606858c5.217524-22.235429 6.972952-45.153524 5.217524-67.925333zM664.771048 369.90781c5.217524-22.235429 7.021714-45.104762 5.315047-67.876572-9.020952-119.710476-107.910095-216.990476-220.988952-216.990476-113.030095 0-197.38819 97.03619-188.464762 216.649143 8.97219 119.661714 107.861333 217.136762 220.696381 217.136762a182.467048 182.467048 0 0 0 139.556571-64.024381l214.162286 124.050285c-78.360381 88.649143-198.265905 145.359238-337.92 145.310477C240.688762 724.163048 18.529524 535.161905 1.121524 302.177524c-17.408-232.984381 176.518095-421.936762 432.956952-421.888 256.487619 0.097524 478.646857 189.049905 496.054857 422.083047 1.462857 22.528 0.975238 45.153524-1.609143 67.584l-263.753142-0.048761zM3988.431238-118.150095l-218.453333-0.097524 71.046095 907.166476 218.453333 0.048762-71.046095-907.117714zM4194.401524 209.92l-261.36381-0.048762 288.475429 323.486476 261.363809 0.048762-288.475428-323.486476zM4221.513143-113.566476l261.363809-0.048762-288.475428 323.437714-261.36381 0.048762 288.475429-323.437714zM2738.566095-120.978286l-218.453333-0.048762 66.413714 844.946286h218.453334l-66.413715-844.897524zM3245.494857-120.978286l-218.453333-0.048762 66.511238 844.946286h218.453333l-66.511238-844.897524zM3622.66819-120.978286l-218.453333-0.048762L3456.146286 530.773333l218.453333 0.048762-51.931429-651.800381zM3678.695619 655.652571c48.664381 46.031238 54.954667 118.491429 13.994667 161.889524-40.96 43.300571-113.712762 41.155048-162.377143-4.87619-48.761905-46.031238-55.003429-118.491429-13.994667-161.889524 40.96-43.300571 113.615238-41.155048 162.377143 4.87619z"  horiz-adv-x="5217" />

    
    <glyph glyph-name="geeyoga" unicode="&#58937;" d="M4567.1424 183.9104h-184.6784l40.96 547.072H4608.0512l-40.9088-547.072zM4249.3952 730.9824c-141.824 0-265.8816-122.5728-277.1968-273.6128-11.264-151.04 94.464-273.5616 236.2368-273.5616 141.824 0 265.8304 122.5728 277.1968 273.664 11.3152 151.0912-94.72 273.5104-236.2368 273.5104z m30.8224-393.1136c-56.4224 0-98.6624 52.4288-93.7984 117.1456 4.8128 64.7168 54.6304 117.0944 111.36 117.1456 56.7296 0.1024 98.6112-52.4288 93.8496-117.0944-4.8128-64.6656-54.9888-117.248-111.616-117.248h0.2048zM2083.84 473.9072l3.1744 0.6656c-7.424 143.2064-134.6048 256.512-293.376 256.512-165.376 0-301.824-123.0848-304.7424-274.8416-2.8672-151.808 128.512-274.688 293.8368-274.6368 107.1616 0 201.728 51.8144 256.2048 129.3824l-97.28 80.7936c-29.3376-41.6256-82.5856-69.9904-143.6672-72.2432-1.8944 0-7.68-0.3072-7.68-0.3072-38.2464 1.1264-70.2976 32.512-85.9136 77.7728l379.4432 76.9024z m-285.9008 132.608c39.0656 0 71.8848-31.6928 87.8592-77.6192l-189.44-38.4c10.3936 66.048 52.3776 116.0192 101.5808 116.0192zM1434.1632 473.9072l3.072 0.6144c-7.3216 143.2064-134.5536 256.512-293.376 256.512-165.376 0-301.7728-123.0848-304.6912-274.7904-2.9696-151.7056 128.512-274.7392 293.8368-274.688 107.2128 0 201.728 51.8144 256.2048 129.3824l-97.536 80.7936c-29.44-41.6256-82.6368-70.0416-143.7184-72.2944l-7.7312-0.3072c-38.1952 1.1264-70.1952 32.5632-85.8624 77.7728l379.7504 77.0048z m-286.0032 132.4544c39.0656 0 71.8848-31.6416 87.8592-77.568l-189.44-38.4c10.4448 65.9968 52.3776 115.9168 101.5808 115.9168v0.0512zM353.0752 481.8432l8.5504 114.7904 408.8832 0.1024-8.6016-114.8416H353.0752zM567.1424 539.2896c-1.536-19.6608-5.9392-39.0144-13.1072-57.344h222.8736a336.896 336.896 0 0 1 9.8304 57.3952 323.072 323.072 0 0 1-1.2288 57.344h-222.8736c4.4032-18.7392 5.9392-38.144 4.5056-57.3952zM562.6368 596.6848c4.4032-18.7904 5.9392-38.144 4.5056-57.3952-7.68-101.2224-91.2384-183.296-186.88-183.296-95.5392-0.1024-166.8608 82.0224-159.5392 183.2448 7.3728 101.2224 91.1872 183.296 186.7776 183.296a154.112 154.112 0 0 0 117.9648-54.1696L706.0992 773.12C639.7952 848.0768 538.4192 896 420.352 896 203.4688 896 15.7184 736.1536 0.9728 539.136c-14.7456-196.9152 149.1968-356.6592 366.0288-356.608 216.832 0.0512 404.6336 159.744 419.3792 356.864a323.584 323.584 0 0 1-1.2288 57.344l-222.5152-0.0512zM3577.0368 730.9824c-141.824 0-265.8816-122.5216-277.1456-273.6128-11.264-151.0912 94.5152-273.5616 236.2368-273.5104 141.7216 0.1024 265.8816 122.5728 277.1456 273.6128 11.264 151.04-94.3104 273.5616-236.2368 273.5104z m30.8736-393.0624c-56.4224 0-98.6624 52.4288-93.8496 117.1456 4.8128 64.7168 54.7328 117.1456 111.36 117.1456 56.6784 0 98.6624-52.4288 93.8496-117.1456-4.8128-64.7168-54.7328-117.1456-111.36-117.1456zM3740.3648 730.9824l-42.2912-589.9776a114.688 114.688 0 0 0-114.4832-106.7008 114.688 114.688 0 0 0-111.2064 86.528h-178.176a299.008 299.008 0 0 1 293.376-240.8448 299.008 299.008 0 0 1 298.24 278.7328l39.1168 572.3136-184.576-0.0512zM2435.2768 181.7088H2250.8032l35.2256 438.9376 184.576 0.0512-35.2768-439.04zM2234.4192 890.7264h-207.5648l-0.1536-0.2048 252.6208-353.28 90.5216-21.4016 34.2016 144.5888L2234.368 890.7264zM2565.6832 890.7264h207.4624l0.1024-0.2048-309.3504-353.28-94.0544-21.4016-10.9056 144.5888L2565.6832 890.7264zM2959.8208 731.4944c-165.376 0-309.248-123.0848-321.6384-274.944-12.3904-151.808 111.9744-274.8928 277.2992-274.8928 165.3248 0 309.1968 123.0848 321.5872 274.944 12.4416 151.808-111.9744 274.8928-277.248 274.8928z m-33.8432-423.7824c-60.0576 0-103.424 66.6624-96.768 148.8384 6.6048 82.2272 60.6208 148.8896 120.6784 148.8896 60.0064 0 103.424-66.6624 96.768-148.8896-6.5536-82.176-60.8256-148.8384-120.9344-148.8384h0.256z"  horiz-adv-x="4608" />

    
    <glyph glyph-name="plushe20-09" unicode="&#58932;" d="M1206.600966-95.907246a253.031884 253.031884 0 0 0-252.722705 252.784541V885.797101h160.340096v-728.919806a92.753623 92.753623 0 0 1 92.382609-92.382609zM1785.321739-115.571014a311.590338 311.590338 0 0 0-311.281159 311.281159V635.733333h160.401932v-440.023188a150.879227 150.879227 0 1 1 301.758454 0V635.733333h160.401933v-440.023188a311.590338 311.590338 0 0 0-311.28116-311.281159zM160.401932-115.756522H0V524.490821a343.250242 343.250242 0 1 0 343.188406-343.250241H160.401932z m0 457.584541H343.188406a182.848309 182.848309 0 1 1-182.786474 182.662802zM2850.999034 621.882126a330.079227 330.079227 0 0 1-329.708213-329.708213V228.173913a157.433816 157.433816 0 0 0-157.248309-157.310145h-6.183575v-172.398068h6.183575A330.079227 330.079227 0 0 1 2693.750725 228.173913V292.173913a157.433816 157.433816 0 0 0 157.248309 157.310145h6.183575V621.882126zM3416.239614 582.98744a295.636715 295.636715 0 0 1-137.399034-33.885991V885.797101h-160.401933v-1001.73913h160.401933V285.186473a137.399034 137.399034 0 0 0 274.798067 0v-400.942995h160.401933V285.186473a298.171981 298.171981 0 0 1-297.800966 297.800967zM4652.583575 194.164251h85.828019a379.362319 379.362319 0 1 1-26.960386-92.753623 3.957488 3.957488 0 0 1-3.586474 5.503382H4526.376812a220.382609 220.382609 0 0 0-376.14686 87.373913h502.53913z m-266.32657 279.55942a222.608696 222.608696 0 0 0 185.507246-150.755555c0.989372-2.844444 1.731401-5.688889 2.535266-8.533333H4150.415459a220.815459 220.815459 0 0 0 235.841546 159.288888z"  horiz-adv-x="4743" />

    
    <glyph glyph-name="-close" unicode="&#58931;" d="M511.968-128C229.184-128 0 101.15200000000004 0 384 0 666.816 229.152 896 511.968 896 794.784 896 1024 666.848 1024 384c0-282.816-229.152-512-512-512h-0.032z m0 975.232C256.8 847.232 48.768 639.168 48.768 384c0-255.168 208.032-463.232 463.2-463.232 255.2 0 463.232 208.064 463.232 463.232 0 255.168-208.032 463.232-463.2 463.232h-0.032zM562.208 371.23199999999997l198.496 197.12c9.728 9.728 9.728 25.824 0 37.184l-1.664 1.6a25.664 25.664 0 0 1-35.776 0L524.8 408.384l-198.432 197.12a25.664 25.664 0 0 1-35.84 0l-1.6-1.6c-9.76-9.728-9.76-25.824 0-37.152l198.464-195.52-198.496-197.152c-9.728-9.696-9.728-25.856 0-37.184l1.6-1.6a25.664 25.664 0 0 1 35.84 0l198.464 198.752 198.464-197.12a25.664 25.664 0 0 1 35.776 0l1.664 1.6c9.728 9.696 9.728 25.856 0 37.152l-198.496 195.52v0.032z"  horiz-adv-x="1024" />

    
    <glyph glyph-name="-avatar" unicode="&#58939;" d="M512 384m-512 0a512 512 0 1 1 1024 0 512 512 0 1 1-1024 0ZM514.955636 403.851636a141.242182 141.242182 0 0 1 141.125819 141.358546A141.242182 141.242182 0 0 1 514.955636 686.545455a141.242182 141.242182 0 0 1-141.102545-141.335273 141.242182 141.242182 0 0 1 141.102545-141.358546zM567.482182 321.67563600000005H462.429091c-113.175273 0-209.221818-82.804364-227.095273-192.512-2.141091-13.195636 8.587636-24.436364 21.922909-24.436363h509.463273c13.079273 0 23.738182 10.845091 22.016 23.831272a222.184727 222.184727 0 0 1-221.277091 193.117091z"  horiz-adv-x="1024" />

    
    <glyph glyph-name="-wenhao" unicode="&#59000;" d="M470.73972 135.14011700000003c0 25.399625 20.545475 45.9451 45.9451 45.9451 25.399625 0 45.9451-20.545475 45.9451-45.9451 0-25.399625-20.545475-45.9451-45.9451-45.9451-25.286738 0-45.9451 20.658362-45.9451 45.9451zM516.68482 212.35497699999996c-16.933083 0-30.592437 13.772241-30.592438 30.592438v51.815235c0 50.121927 38.268769 88.390696 72.134936 122.256863 24.835189 24.835189 50.460589 50.460589 50.460589 70.893176 0 51.025025-41.203836 92.567523-91.8902 92.567523-51.476574 0-91.8902-39.736303-91.8902-90.535553 0-16.933083-13.772241-30.592437-30.592437-30.592438-16.933083 0-30.592437 13.772241-30.592437 30.592438 0 83.649432 68.748319 151.833315 153.187961 151.833315 84.439643 0 153.187962-68.974093 153.187962-153.865285 0-45.832213-34.769265-80.601477-68.409657-114.24187-26.641385-26.641385-54.185867-54.07298-54.185867-78.795282v-51.815235c-0.112887-16.933083-13.885128-30.705325-30.818212-30.705325zM511.266233-66.02491499999996c-60.281777 0-118.757359 11.853158-173.733436 35.107927-53.169882 22.464557-100.921177 54.637416-141.89924 95.615478-40.978062 41.090949-73.150921 88.842245-95.615477 141.899239-23.254768 55.088965-35.107926 113.564546-35.107927 173.846323 0 60.281777 11.853158 118.757359 35.107927 173.733437 22.464557 53.169882 54.637416 100.921177 95.615477 141.899239 40.978062 40.978062 88.729357 73.150921 141.89924 95.615478 55.088965 23.254768 113.564546 35.107926 173.733436 35.107926s118.757359-11.853158 173.733436-35.107926c53.169882-22.464557 100.921177-54.637416 141.89924-95.615478 40.978062-40.978062 73.150921-88.729357 95.615478-141.899239 23.254768-55.088965 35.107926-113.564546 35.107926-173.733437 0-60.281777-11.853158-118.757359-35.107926-173.733436-22.464557-53.169882-54.637416-100.921177-95.615478-141.899239-40.978062-40.978062-88.729357-73.150921-141.89924-95.615478-54.976078-23.367655-113.451659-35.220814-173.733436-35.220814z m0 827.68912c-101.824275 0-197.55264-39.623415-269.574689-111.645464-72.022048-72.022048-111.645464-167.750413-111.645463-269.574689 0-101.824275 39.623415-197.55264 111.645463-269.574688 72.022048-72.022048 167.750413-111.645464 269.574689-111.645464s197.55264 39.623415 269.574689 111.645464c72.022048 72.022048 111.645464 167.750413 111.645463 269.574688 0 101.824275-39.623415 197.55264-111.645463 269.574689C708.931761 722.040789 613.203395 761.664205 511.266233 761.664205z"  horiz-adv-x="1024" />

    
    <glyph glyph-name="-kefu2" unicode="&#58930;" d="M768.96 485.6h18.592c26.08 0 48.416-22.752 48.416-49.28v-148c0-26.56-22.336-49.28-48.384-49.28h-18.624M750.336 212.48h-29.76c-11.2 0-22.336 11.36-22.336 22.72v261.76c0 11.424 11.168 22.784 22.336 22.784h29.76M272.96 212.48h32.448c12.16 0 24.32 11.36 24.32 22.72v261.76c0 11.424-12.16 22.784-24.32 22.784H272.96M262.72 485.6h-22.336c-26.048 0-48.384-22.752-48.384-53.12v-147.936c0-26.56 22.336-49.312 48.384-49.312h18.624M586.56 18.976l-7.424 30.336c96.768 30.368 163.776 121.408 163.776 227.648v189.664c0 132.8-104.224 239.04-234.528 239.04-130.24 0-234.496-106.24-234.496-239.04v-254.176a26.048 26.048 0 0 0-26.048 26.048v228.16C247.84 614.592 363.2 736 508.384 736c145.184 0 264.32-121.408 264.32-269.376v-193.472c0-117.6-74.464-220.032-186.144-254.176zM564.224 0h-111.68c-14.88 0-29.76 15.168-29.76 30.336 0 15.2 14.88 30.368 29.76 30.368h111.68c14.88 0 29.76-15.168 29.76-30.368 0-15.168-11.136-30.336-29.76-30.336z"  horiz-adv-x="1024" />

    
    <glyph glyph-name="-shanchu" unicode="&#58929;" d="M384 708.32c0 15.296 11.968 27.68 26.752 27.68h202.496c14.752 0 26.752-12.384 26.752-27.68V608h-53.536V680.64h-148.928V608H384V708.32zM288 60.992V512h60.16v-422.016h327.68V512H736v-451.008c0-16-13.44-28.992-30.08-28.992H318.08c-16.64 0-30.08 12.992-30.08 28.992zM800 544H224V608h576v-64zM427.008 169.408V448.64h57.216v-279.232h-57.216zM539.776 169.408V448.64h57.216v-279.232h-57.216z"  horiz-adv-x="1024" />

    
    <glyph glyph-name="-coupon_youhuiquan1" unicode="&#58882;" d="M307.063467 896H0v-1024h1433.6V896h-307.063467A443.869867 443.869867 0 0 0 307.063467 896z"  horiz-adv-x="1433" />

    
    <glyph glyph-name="-coupon" unicode="&#58881;" d="M307.063467 896H0v-1024h1433.6V896h-307.063467A443.869867 443.869867 0 0 0 307.063467 896z"  horiz-adv-x="1433" />

    
    <glyph glyph-name="-kefu" unicode="&#58927;" d="M771.2 480h-22.4v38.4h22.4c37.024 0 73.6-28.768 73.6-67.2v-137.6c0-38.432-36.576-67.2-73.6-67.2h-44.8v38.4h44.8c20.576 0 35.2 16.032 35.2 28.8v137.6c0 12.768-14.624 28.8-35.2 28.8zM252.096 518.4C269.44 640.64 375.744 736 502.4 736c138.592 0 252.8-114.208 252.8-252.8v-179.2a253.44 253.44 0 0 0-180.096-242.4l-11.008 36.8A215.04 215.04 0 0 1 716.8 304v179.2c0 117.408-96.992 214.4-214.4 214.4S288 600.608 288 483.2v-214.4a19.2 19.2 0 0 0-19.2-19.2H233.6c-37.024 0-73.6 28.768-73.6 67.2v134.4c0 38.432 36.576 67.2 73.6 67.2h18.496zM249.6 480h-16c-20.576 0-35.2-16.032-35.2-28.8v-134.4c0-12.768 14.624-28.8 35.2-28.8h16v192zM547.2 35.2h-89.6c-22.4 0-41.6 19.2-41.6 41.6 0 22.4 19.2 41.6 41.6 41.6h89.6c22.4 0 41.6-19.2 41.6-41.6 0-22.4-19.2-41.6-41.6-41.6z"  horiz-adv-x="1024" />

    
    <glyph glyph-name="-zhifuchenggong" unicode="&#58926;" d="M928 368C928 147.072 748.928-32 528-32S128 147.072 128 368 307.072 768 528 768 928 588.928 928 368zM373.248 391.456l-37.248-40 170.688-161.088 35.936 41.632-169.376 159.456zM474.624 236l36-40L762.624 480l-24 24-264-268z"  horiz-adv-x="1024" />

    
    <glyph glyph-name="-mastercard" unicode="&#58920;" d="M96 441.376c0-141.76 112.704-256.16 252.416-256.16 139.68 0 252.384 114.4 252.384 256.16 0 141.76-113.664 256.192-252.384 256.192C209.664 697.568 96 583.168 96 441.376zM414.88 441.376c0-141.76 112.704-256.16 252.384-256.16 139.712 0 252.416 114.4 252.416 256.16 0 141.76-113.664 256.192-252.384 256.192-138.752 0-252.416-114.4-252.416-256.192zM415.84 441.376a255.456 255.456 0 0 1 92.48-197.504 256.832 256.832 0 0 1 93.44 198.496 255.456 255.456 0 0 1-92.48 197.504c-57.792-46.944-93.44-118.304-93.44-198.496zM898.496 313.28h2.88v-7.808h0.96v7.84h2.88v0.96h-7.68l0.96-0.96z m16.384 0.992l-2.88-7.808-2.912 7.808h-1.92v-9.76h0.96v6.848l2.88-6.848h0.96l2.88 6.848v-6.848h0.96v9.76h-0.96zM227.008 124.576c-10.56 2.944-21.184 1.952-29.856-5.856-0.96-0.96-1.92-2.944-2.88-2.944-12.544 13.696-26.976 15.68-41.44 2.944-0.96 1.952 0 3.904-1.92 6.848h-13.472v-68.448h13.472c0.96 1.952 0.96 3.904 0.96 4.896v31.296c0 2.912 0 5.856 0.96 7.808a14.848 14.848 0 0 0 16.384 11.744c7.68 0 11.552-4.896 13.472-12.736v-39.104c0-0.96 0-2.912 0.96-3.904 3.872 0 8.704-0.96 13.504 0 0.96 1.952 0.96 3.904 0.96 4.896v31.296c0 2.912 0 5.856 0.96 7.808 1.92 7.808 8.672 11.744 16.384 11.744 7.68-0.96 12.512-4.896 13.504-12.736v-38.112c0-1.952 0-2.944 0.96-4.896h13.472c0 0.96 0.96 0.96 0.96 1.952v44c-0.96 9.792-6.72 17.6-17.344 21.504z m635.84 26.4v-34.208c-18.304 11.744-34.688 10.752-46.24-2.944-11.552-12.704-11.552-35.2-0.96-48.864 4.8-5.888 11.552-9.792 19.264-11.744 10.592-1.952 19.264 0 26.976 8.8v-3.904c0-0.96 0-1.952 0.96-2.944 4.8-0.96 10.592-0.96 13.472 0v94.848c-3.84 1.952-8.64 1.952-13.472 0.96z m-19.264-83.104c-11.552 0-20.224 8.8-20.224 21.504 0 12.736 8.64 22.496 20.224 22.496 11.552 0 20.224-8.8 20.224-21.504s-8.64-22.496-20.224-22.496z m-115.616 55.744c-1.92-1.952 0-4.896-1.92-6.848-6.72 6.848-14.464 8.8-23.136 8.8-9.6-0.96-16.352-4.896-23.104-11.744-10.592-12.704-10.592-34.24 0-47.904 4.8-5.856 11.552-9.76 19.264-11.744 10.592-1.92 20.224 0 26.976 7.84 1.92-1.952 0-4.896 1.92-6.848h13.504v68.448a31.36 31.36 0 0 1-13.504 0z m-20.224-55.744c-12.512 0-20.224 8.8-20.224 22.496 0 12.704 8.64 21.504 21.184 21.504 11.552 0 20.224-9.76 20.224-21.504-1.92-13.696-9.6-22.496-21.184-22.496zM312.768 123.616c-0.96-1.952 0-4.896-0.96-5.856-16.384 11.712-32.768 10.752-45.28-1.984-12.544-12.704-12.544-35.2-1.92-48.864 4.8-6.848 11.52-10.752 20.224-11.744 10.56-1.952 19.264 0 26.976 7.808 1.92-1.92 0-4.864 1.92-6.816h13.472v68.416c-5.76-0.96-9.6 0-14.432-0.96z m-20.224-55.744c-12.544 0-20.256 9.792-20.256 22.496 0 12.704 8.672 21.504 20.256 21.504 11.52 0 20.224-9.76 20.224-22.496 0-12.704-8.672-21.504-20.224-21.504z m225.408 56.704a31.84 31.84 0 0 1-34.688-11.712c-7.68-10.752-8.64-22.496-5.76-35.2 3.84-13.696 12.512-21.504 26.016-23.488 6.72-0.96 14.432-0.96 21.184 0.992 4.8 1.952 9.632 3.904 13.472 7.808a66.176 66.176 0 0 0-6.72 10.784c-22.176-10.784-37.6-6.848-39.52 9.76h49.152a28.224 28.224 0 0 1 0 12.704c-1.92 14.688-9.632 24.448-23.136 28.352z m-26.016-28.352c0.96 8.8 7.712 15.68 16.384 15.68 9.632 0 16.384-4.928 17.344-15.68h-33.728z m-100.16-3.904c-2.912 0.96-4.832 1.952-7.744 2.944-5.76 0.96-10.56 1.92-16.352 2.912-2.88 0.992-6.752 1.952-7.712 5.888 0 2.912 2.88 6.848 7.68 7.808a31.36 31.36 0 0 0 13.504 0c4.8-0.96 8.672-2.912 13.504-4.896 1.92 3.936 3.84 7.84 6.72 12.736-15.392 7.808-29.856 9.76-44.288 2.912-7.712-3.904-11.584-10.752-11.584-19.52 0-8.832 5.76-13.728 12.544-16.64 5.76-2.944 11.52-2.944 18.304-3.904 2.88-0.992 5.76-0.992 8.64-1.984 3.872-1.92 3.872-6.816 0.96-9.76-1.92-1.952-3.84-1.952-5.76-2.944a31.424 31.424 0 0 0-13.472 0 39.264 39.264 0 0 0-16.384 6.848l-6.72-10.752c0-0.96 0.96-0.96 0.96-0.96l0.96-0.992c11.52-7.84 24.064-8.8 37.536-6.848 5.792 0.96 10.624 2.944 14.464 7.808a18.944 18.944 0 0 1-5.76 29.344z m62.592-23.456c-9.6-1.952-14.432 0.96-14.432 11.712v24.448c0 1.952 0 2.944 0.96 5.888h22.144c0.96 4.864 0 8.8 0 13.664h-24.096v20.544h-14.432v-19.552c-4.8-0.96-8.672 0-13.472-0.96 0-3.936-0.96-8.832 0-12.736 4.8-0.96 8.64 0 13.44-0.96 0.992-1.984 0-3.936 0.992-4.896v-28.352c0-7.84 1.92-14.688 9.632-19.552 8.672-4.896 24.096-3.904 32.768 1.92a30.368 30.368 0 0 1-4.8 11.744c-3.872-0.96-5.792-1.92-8.704-2.912z m169.568 6.848a22.4 22.4 0 0 0 0 28.352c9.6 12.704 22.144 8.8 33.696 1.92 1.92 3.936 4.832 7.84 6.752 10.784-6.72 9.76-33.696 13.696-48.16 0-14.464-12.704-15.424-38.144-1.92-52.8 12.512-13.696 39.488-14.656 51.04-1.952-1.92 3.904-4.8 7.808-6.72 11.744-13.504-6.848-25.056-9.792-34.688 1.92z m-52.032 42.048c-0.96 1.92 0 4.864-1.92 6.816h-13.504v-68.416h14.464v36.16c0 2.944 0 5.856 0.96 8.8 1.92 6.848 6.72 10.752 13.504 10.752 2.88 0 5.76-0.96 9.6-0.96 1.92 4.864 2.88 8.8 4.832 13.664-11.552 2.944-20.224 1.952-27.936-6.816z m204.224 0c-0.96 2.912 0 4.864-0.96 6.816h-14.432v-68.416c4.8 0 9.6-0.992 14.432 0v35.2c0 2.912 0 6.816 0.96 9.76 1.92 6.848 6.752 10.752 13.504 10.752 2.88 0 5.76-0.96 9.6-0.96 1.952 4.864 2.912 8.8 4.864 13.664-11.584 2.944-20.256 1.952-27.968-6.816z m135.84-57.696c0 0.96-1.92 1.92-3.84 1.92h-2.88v-6.816h0.96v2.944h1.92l1.92-2.944h1.92l-2.88 2.944c1.92 0 2.88 0.96 2.88 1.92z m-3.84-0.96h-1.92v2.88h1.92c1.92 0 1.92 0 1.92-0.96 0.96-1.92 0-1.92-1.92-1.92zM909.088 65.92c-3.84 0-6.72-2.944-6.72-6.848s2.88-6.848 6.72-6.848 6.72 2.944 6.72 6.848a6.624 6.624 0 0 1-6.72 6.848z m0-13.696c-2.88 0-5.76 2.944-5.76 5.856 0 2.944 2.88 5.888 5.76 5.888s5.76-2.944 5.76-5.888c0-2.912-1.92-5.856-5.76-5.856z"  horiz-adv-x="1024" />

    
    <glyph glyph-name="-discover" unicode="&#58921;" d="M193.6 632.096c-32.16 4.928-63.232 1.984-95.36 1.984-1.12 0-1.12-0.992-2.24-0.992v-204.8c27.712 0 55.456-0.96 83.2 1.024 56.544 3.936 103.104 45.504 106.432 94.944 3.328 54.4-33.28 96.96-92.032 107.84z m32.16-141.44c-15.52-20.8-44.352-30.688-85.408-26.72V597.44c32.16 6.912 67.648-3.968 85.408-25.728 17.728-23.744 17.728-56.384 0-81.12z m1283.104-18.816c-12.192 13.856-23.296 27.712-35.488 42.56 4.448 0.96 7.776 1.952 11.104 3.936a61.024 61.024 0 0 1 35.488 28.672c18.848 38.592-3.328 76.16-48.8 85.088-25.504 4.928-51.008 1.984-77.632 2.944h-16.64v-205.76h44.352V509.44c6.656 1.952 7.776-1.984 9.984-4.96 18.88-24.736 37.696-50.432 56.576-75.2h55.424a672.544 672.544 0 0 1-34.368 42.56z m-86.496 67.264V601.408c18.848 0.992 36.608 1.984 49.92-11.84 7.744-8.928 8.864-25.728 1.088-35.616-12.192-16.832-31.04-14.848-51.008-14.848z m-202.944-109.792h126.4v33.6c-27.712 1.024-54.336-0.96-82.048 1.024v55.36h78.72v34.656h-77.6V599.456h82.048V634.08h-126.4v-204.8h-1.12z m-131.968 67.264l-60.992 137.504h-49.92c33.28-71.232 65.44-140.48 97.6-210.72h24.384l99.84 210.72h-48.832a9327.36 9327.36 0 0 1-62.08-137.504z m-600 49.44a183.424 183.424 0 0 1-21.056 7.936 289.184 289.184 0 0 0-26.624 9.888c-8.864 3.936-14.4 9.888-13.28 18.784 1.088 8.896 6.656 14.848 15.52 17.824 16.64 5.92 32.16 3.936 46.56-5.952 2.24-1.984 4.448-4.96 8.896-4.96 7.744 7.936 14.4 16.832 22.176 24.736-24.416 22.752-70.976 29.696-102.048 16.832-24.384-10.88-36.576-27.712-37.696-52.448-1.12-23.712 13.312-38.56 36.608-48.448l23.264-8.896c7.776-2.976 16.64-4.96 24.416-8.928 12.192-4.928 18.848-13.824 17.728-25.696-1.088-11.872-7.744-20.8-21.056-24.736-17.76-5.952-39.936 0-53.248 12.864a44.48 44.48 0 0 0-8.864 10.88l-27.712-24.736c21.056-30.656 62.08-45.504 103.136-35.616 32.16 7.904 52.128 28.704 55.456 58.368 2.208 29.664-9.984 47.488-42.144 62.304zM615.04 476.8c-28.8 22.784-34.368 64.32-13.312 92.992a73.312 73.312 0 0 0 41.024 28.704c29.952 7.904 55.456 0.96 77.664-18.816V626.144c-44.384 23.744-109.792 13.856-146.4-22.72-39.936-39.584-42.144-96-6.656-137.504 35.488-40.576 100.928-54.4 153.056-30.688 2.208 15.84 1.088 39.584-1.12 45.504-37.696-25.696-75.424-26.688-104.256-3.936z m-307.2-47.456h43.264V634.08H307.808v-204.8zM736.992 531.2c0-60.352 54.336-108.8 122.016-108.8 67.616 0 121.984 48.448 121.984 108.8 0 60.32-54.336 108.8-122.016 108.8-67.648 0-121.984-48.48-121.984-108.8zM1543.232 629.12h-7.744v-14.848h3.328v5.952h4.416l6.656-5.952h4.448l-7.776 5.952c3.328 0.96 5.568 1.984 5.568 3.936 0 3.968-3.328 4.96-8.896 4.96z m-5.536-6.912v4.928h4.448c4.416 0 6.656-0.96 6.656-2.976 0-1.952-2.24-2.944-6.656-2.944h-4.448v0.96zM1544.352 638.016c-9.984 0-18.88-6.912-18.88-16.8 0-8.928 7.776-16.832 18.88-16.832 9.984 0 18.88 6.944 18.88 16.832a19.296 19.296 0 0 1-18.88 16.8z m0-30.656c-8.864 0-15.52 5.92-15.52 13.856 0 7.904 6.656 13.824 15.52 13.824s15.52-5.92 15.52-13.824c0-7.936-7.744-13.856-15.52-13.856zM1786.112 446.112c-191.84-145.408-911.584-366.976-1340.8-445.12H1629.76c86.496 0 156.352 62.304 156.352 139.488V446.08z"  horiz-adv-x="1888" />

    
    <glyph glyph-name="-maestro" unicode="&#58922;" d="M96 450.336c0-140.416 112.736-253.696 252.448-253.696s252.448 113.28 252.448 253.696C600.896 590.72 487.2 704 348.416 704 209.728 704 96 590.72 96 450.336zM414.944 450.336c0-140.416 112.704-253.696 252.416-253.696s252.48 113.28 252.48 253.696C919.808 590.72 806.08 704 667.328 704c-138.72 0-252.416-113.28-252.416-253.664zM415.904 450.336c0-78.432 35.648-149.12 92.48-195.584a253.344 253.344 0 0 1 93.472 196.544c0 78.4-35.648 149.12-92.48 195.584-57.824-46.496-93.472-117.152-93.472-196.544zM898.624 323.488h2.88v-7.744h0.96v7.744h2.88v0.96h-7.68l0.96-0.96z m16.384 0.96l-2.88-7.744-2.88 7.744h-1.952v-9.664h0.96v6.752l2.88-6.752h0.96l2.88 6.752v-6.752h0.96v9.664h-0.96zM253.056 138.56c-6.72 0-12.512-2.912-20.224-8.704-0.96 1.92 0 3.84-1.92 6.752h-13.504v-67.776h13.472c0.96 1.92 0.96 3.872 0.96 4.864v30.976c0 2.88 0 5.792 0.96 7.744 1.92 7.744 7.744 11.616 15.424 11.616h0.96c7.712 0 11.584-4.832 13.504-12.576V72.704c0-0.96 0-2.88 0.96-3.84h12.512c0.96 1.92 0.96 3.84 0.96 4.8v31.008c0 2.88 0 5.792 0.96 7.744a15.616 15.616 0 0 0 15.456 11.616h0.96c7.68-0.96 12.512-4.832 13.472-12.576v-37.76c0-1.92 0-2.912 0.96-4.864h13.504c0 0.96 0.96 0.96 0.96 1.92v43.584c0 10.656-5.76 19.36-16.384 22.272-3.84 0.96-7.68 1.92-10.592 1.92-6.72 0-13.504-1.92-19.264-7.712-0.96-0.96-1.92-2.912-2.88-2.912-6.752 6.784-13.504 10.656-21.216 10.656z m116.576-0.96a31.296 31.296 0 0 1-22.144-9.696c-12.544-12.576-12.544-34.88-1.92-48.416 4.8-6.784 11.52-10.656 20.224-11.616 1.92 0 4.8-0.96 6.72-0.96 7.744 0 14.464 2.88 20.256 8.704 1.92-1.92 0-4.832 1.92-6.784h13.504V136.64h-12.512c-0.96-1.92 0-4.832-0.96-5.792-9.664 3.84-17.376 6.784-25.088 6.784z m3.84-57.152c-12.48 0-21.184 9.696-20.192 22.272 0 12.608 8.64 21.312 20.224 21.312 11.552 0 20.224-9.696 20.224-22.272 0-12.576-8.64-21.312-20.224-21.312z m80.96 58.112c-10.592 0-20.224-4.832-26.016-12.576-7.68-10.656-8.64-22.304-5.76-34.88 3.84-13.536 12.48-21.312 25.984-23.232 2.88-0.96 5.792-0.96 8.672-0.96 3.84 0 8.672 0.96 12.544 1.92 4.8 1.92 9.632 3.872 13.472 7.744a65.216 65.216 0 0 0-6.72 10.656c-8.672-3.84-15.424-5.792-22.176-5.792-9.632 0-16.384 5.792-18.304 16.448h49.152a27.68 27.68 0 0 1 0 12.576c-1.92 13.568-9.632 23.232-23.136 27.136-1.92 0-4.8 0.96-7.68 0.96z m-17.344-30.016c0.96 8.704 7.712 15.488 16.384 15.488h0.96c8.672 0 15.424-5.824 16.384-15.488h-33.728z m93.44 30.016c-5.76 0-11.52-0.96-18.272-3.872-7.712-3.872-11.584-10.656-11.584-19.36 0-8.736 5.792-13.568 12.544-16.48 5.76-2.88 11.552-2.88 18.304-3.84 2.88-0.992 5.76-0.992 8.64-1.952 3.872-1.92 3.872-6.784 0.992-9.696-1.92-1.92-3.84-1.92-5.76-2.88-1.92 0-4.832-0.96-6.752-0.96s-4.832 0-6.752 0.96c-5.76 0.96-10.592 2.88-16.384 6.752l-6.72-10.656c0-0.96 0.96-0.96 0.96-0.96l0.96-0.96c8.64-4.832 17.312-7.744 25.984-7.744 3.84 0 7.712 0 11.584 0.96 5.76 0.96 10.56 2.88 14.432 7.744 9.632 8.704 6.752 24.192-3.84 30.016-2.88 0.96-4.8 1.92-7.712 2.88-5.76 0.992-10.592 1.952-16.384 2.944-2.88 0.96-6.72 1.92-7.68 5.792 0 2.88 2.88 6.784 7.68 7.744 1.92 0 3.84 0.96 4.8 0.96 2.912 0 4.832 0 7.744-0.96 4.8-0.96 8.64-2.88 13.472-4.832 1.92 3.872 3.84 7.744 6.72 12.576-8.64 2.912-17.312 5.824-26.944 5.824z m66.496 18.4h-14.432v-19.36c-1.92-0.96-3.84-0.96-4.8-0.96h-3.872c-1.92 0-3.84 0-4.8-0.992 0-3.872-0.96-8.704 0-12.576h8.64c1.92 0 2.88 0 4.8-0.96 0.96-1.952 0-3.904 0.96-4.864v-28.064c0-7.744 1.952-14.528 9.664-19.36 3.84-1.952 8.672-2.912 13.504-2.912 6.72 0 14.432 1.92 19.264 5.792a29.888 29.888 0 0 1-4.8 11.616c-2.912-0.96-4.832-1.92-7.744-2.88-1.92 0-3.84-0.96-4.8-0.96-6.752 0-9.632 3.84-9.632 12.576v24.192c0 1.92 0 2.88 0.96 5.824h22.144c0.96 4.832 0 8.704 0 13.536h-24.096c-0.96 6.784-0.96 13.568-0.96 20.352z m73.248-19.36c-6.752 0-12.544-1.952-17.344-8.736-0.96 1.92 0 4.832-1.92 6.784H636.544v-67.776h15.424v35.84c0 2.88 0 5.792 0.96 8.704 1.92 6.784 5.76 10.656 13.472 10.656h0.96c2.88 0 5.792-0.96 9.664-0.96 1.92 4.8 2.88 8.704 4.8 13.536-4.8 1.92-8.64 1.92-11.552 1.92z m119.456-62.944h-2.88v-6.784h0.96v2.88h1.92l1.92-2.88h1.92l-2.88 2.88c0.96 0 1.92 0.992 1.92 1.952 0.96 1.92-0.96 1.92-2.88 1.92z m-1.92-2.88v2.88h1.92c1.92 0 1.92 0 1.92-0.96s-0.96-0.96-1.92-0.96l-1.92-0.96zM790.72 78.528c-3.84 0-6.752-2.88-6.752-6.784 0-3.872 2.88-6.784 6.72-6.784 3.872 0 6.752 2.912 6.752 6.784a6.592 6.592 0 0 1-6.72 6.784z m0-13.568c-2.88 0-5.792 2.912-5.792 5.824 0 2.88 2.88 5.792 5.76 5.792s5.792-2.88 5.792-5.792-2.88-5.824-5.76-5.824zM717.472 124.992c11.552 0 21.216-10.656 21.216-22.272 0-11.616-9.664-22.272-21.216-22.272-11.552 0-21.184 10.656-21.184 22.272 0 11.616 9.6 22.272 21.184 22.272z m0 13.568c-18.304 0-33.728-16.48-33.728-35.84 0-19.36 15.424-35.84 33.728-35.84 18.304 0 33.728 16.48 33.728 35.84 0 19.36-15.424 35.84-33.728 35.84z"  horiz-adv-x="1024" />

    
    <glyph glyph-name="-visa" unicode="&#58923;" d="M496.096 169.216l55.424 331.712h86.624l-53.696-331.712h-88.32zM496.096 169.216l71.04 331.712h71.008l-53.696-331.712h-88.32zM897.92 497.28c-17.28 7.36-44.992 14.72-79.68 14.72-86.56 0-148.928-46.08-148.928-112.416 0-49.76 43.296-75.552 77.952-92.16 34.624-16.576 45.024-27.616 45.024-42.368 0-22.112-27.712-33.184-51.968-33.184-34.624 0-53.696 5.536-83.136 18.432l-12.128 5.536-12.128-75.552c20.8-9.216 58.88-18.432 98.752-18.432 91.776 0 152.416 46.08 152.416 116.096 0 38.72-22.528 68.16-74.496 92.16-31.168 16.576-50.24 25.792-50.24 42.368 0 14.72 15.616 29.472 50.24 29.472 29.44 0 50.24-5.504 65.824-12.896l8.64-3.68 13.888 71.872zM897.92 497.28c-17.28 7.36-44.992 14.72-79.68 14.72-86.56 0-133.344-46.08-133.344-112.416 0-49.76 27.712-75.552 62.368-92.16 34.624-16.576 45.024-27.616 45.024-42.368 0-22.112-27.712-33.184-51.968-33.184-34.624 0-53.696 5.536-83.136 18.432l-12.128 5.536-12.128-75.552c20.8-9.216 58.88-18.432 98.752-18.432 91.776 0 152.416 46.08 152.416 116.096 0 38.72-22.528 68.16-74.496 92.16-31.168 16.576-50.24 25.792-50.24 42.368 0 14.72 15.616 29.472 50.24 29.472 29.44 0 50.24-5.504 65.824-12.896l8.64-3.68 13.888 71.872zM1046.912 500.928c-20.8 0-36.384-1.824-45.056-23.936l-129.92-307.776h93.568l17.312 55.296h110.848l10.4-55.296H1187.2l-72.736 331.712h-67.552z m-39.84-221.12c5.184 16.576 34.624 97.664 34.624 97.664s6.944 20.256 12.16 33.184l5.184-31.36s17.28-82.912 20.8-101.344H1007.04v1.856zM1067.68 500.928c-20.8 0-36.352-1.824-45.024-23.936l-150.72-307.776h93.568l17.312 55.296h110.848l10.4-55.296H1187.2l-72.736 331.712h-46.784z m-60.608-221.12c6.912 18.4 34.624 97.664 34.624 97.664s6.944 20.256 12.16 33.184l5.184-31.36s17.28-82.912 20.8-101.344H1007.04v1.856zM336.768 268.736l-8.672 47.904c-15.584 55.296-65.824 116.128-121.248 145.6L284.8 167.36h93.536l140.288 331.744h-93.536l-88.32-230.4zM336.768 268.736l-8.672 47.904c-15.584 55.296-65.824 116.128-121.248 145.6L284.8 167.36h93.536l140.288 331.744h-76.224l-105.632-230.4zM96 500.928l15.584-3.68c110.848-27.648 187.072-97.664 216.512-180.608l-31.168 156.672c-5.216 22.08-20.8 27.616-39.84 27.616H96zM96 500.928c110.848-27.616 202.656-99.52 232.096-182.432l-29.44 130.848c-5.216 22.112-22.528 35.008-41.6 35.008L96 500.928zM96 500.928c110.848-27.616 202.656-99.52 232.096-182.432l-20.8 71.872c-5.184 22.112-12.096 44.224-36.352 53.44L96 500.928zM423.36 279.77599999999995l-58.88 62.688-27.712-70.048-6.944 46.08c-15.584 55.296-65.824 116.096-121.248 145.6l77.952-294.88h93.536l43.296 110.56zM584.448 169.216l-74.496 81.088-13.856-81.088h88.32zM783.616 283.48800000000006c6.944-7.36 10.4-12.928 8.672-20.288 0-22.112-27.712-33.184-51.968-33.184-34.624 0-53.696 5.536-83.136 18.432l-12.128 5.536-12.128-75.552c20.8-9.216 58.88-18.432 98.752-18.432 55.424 0 100.448 16.576 126.4 46.08l-74.464 77.408zM884.096 169.216h81.408l17.312 55.296h110.848l10.4-55.296H1187.2l-29.44 134.528-103.936 106.88 5.216-29.472s17.28-82.944 20.8-101.376H1007.04c6.912 18.432 34.624 97.696 34.624 97.696s6.944 20.256 12.16 33.184"  horiz-adv-x="1344" />

    
    <glyph glyph-name="-xinyongka" unicode="&#58918;" d="M246.4 576c-29.568 0-54.4-24.832-54.4-54.4v-307.2c0-29.568 24.832-54.4 54.4-54.4h531.2c29.312 0 53.728 24.288 51.232 56.384l-0.032 0.608V521.6c0 29.568-24.832 54.4-54.4 54.4H246.4zM160 521.6A87.04 87.04 0 0 0 246.4 608h528a87.04 87.04 0 0 0 86.4-86.4v-303.424A83.328 83.328 0 0 0 777.6 128H246.4A87.04 87.04 0 0 0 160 214.4v307.2zM848 486.4h-672v-73.6h672v73.6zM480 300.8H252.8v32H480v-32zM771.2 275.2h-134.4v32h134.4v-32zM771.2 214.4h-134.4v32h134.4v-32z"  horiz-adv-x="1024" />

    
    <glyph glyph-name="-paypal" unicode="&#58919;" d="M442.496 293.184h-17.024c-1.12 0-2.272-0.768-2.272-2.656L416 239.104c0-0.736 0.64-1.28 1.152-1.28h8.16c1.152 0 2.304 0.736 2.304 2.624l2.272 14.368c0 1.312 1.152 2.624 2.304 2.624h5.888c11.104 0 18.304 6.816 20.096 19.104 0.64 5.472 0 9.632-2.272 13.056-2.784 2.08-6.88 3.584-13.44 3.584z m1.792-18.528c-0.64-7.552-5.888-7.552-10.624-7.552h-2.944l2.272 13.024c0 0.768 0.64 2.08 1.152 2.08h1.152c2.944 0 6.528 0 7.68-2.624 1.28-0.768 1.952-2.848 1.28-4.928z m50.688 0h-8.192c-0.64 0-1.12-0.768-1.12-1.312l-0.64-2.656-0.672 0.768c-2.304 3.392-5.888 4.16-9.984 4.16-9.472 0-17.152-8.16-18.304-19.84-0.64-5.504 0-10.976 2.944-15.136a13.28 13.28 0 0 1 10.624-4.736 12.864 12.864 0 0 1 11.104 5.472l-0.64-2.624c0-0.768 0.64-1.344 1.152-1.344h7.68c1.152 0 2.272 0.768 2.272 2.656l4.096 32.896c0.832 0.96 0.32 1.696-0.32 1.696z m-12.416-19.104c-0.64-5.44-4.768-8.864-9.504-8.864a7.552 7.552 0 0 0-5.888 2.624c-1.152 1.344-1.152 4.16-1.152 6.816 0.64 5.472 4.768 8.896 9.504 8.896 2.272 0 4.096-0.768 5.888-2.656 1.152-2.08 2.432-4.16 1.152-6.816z m57.216 19.104h-8.192c-0.64 0-1.12-0.768-2.272-0.768l-11.136-19.84-4.736 19.104c0 0.736-1.152 1.312-2.272 1.312h-8.192c-0.64 0-1.152-0.768-1.152-1.312v-0.768l9.504-31.36-8.192-14.4c-0.64-0.736 0-1.28 0-2.624h9.504c0.64 0 1.12 0.768 2.272 0.768l27.648 47.232c-1.632 0.576-2.144 1.92-2.784 2.656zM567.392 293.184h-17.632c-1.152 0-2.304-0.768-2.304-2.656l-7.04-51.968c0-0.768 0.64-1.312 1.152-1.312h9.472c0.64 0 1.152 0.736 1.152 1.28l2.304 15.136c0 1.344 1.12 2.656 2.272 2.656h5.888c11.136 0 18.336 6.816 20.128 19.104 0.64 5.44 0 9.6-2.304 13.024-2.944 3.2-7.04 4.736-13.088 4.736z m2.464-18.528c-0.64-7.552-5.888-7.552-10.624-7.552h-2.944l2.304 13.024c0 0.768 0.64 1.344 1.12 1.344h1.152c2.944 0 6.528 0 7.68-2.656 1.312 0 1.312-2.08 1.312-4.16z m49.536 0h-8.16c-0.64 0-1.152-0.768-1.152-1.312l-0.64-2.656-0.64 0.768c-2.304 3.392-5.92 4.16-10.016 4.16-9.472 0-17.152-8.16-18.304-19.84-0.64-5.504 0-10.976 2.944-15.136a13.28 13.28 0 0 1 10.624-4.736 12.864 12.864 0 0 1 11.136 5.472l-0.64-2.624c0-0.768 0.64-1.344 1.12-1.344h7.68c1.152 0 2.304 0.768 2.304 2.656l4.064 32.896c1.472 0.96 1.472 1.696-0.32 1.696z m-11.264-19.104c-0.64-5.44-4.768-8.864-9.504-8.864a7.552 7.552 0 0 0-5.888 2.624c-1.12 1.344-1.12 4.16-1.12 6.816 0.64 5.472 4.736 8.896 9.472 8.896 2.304 0 4.096-0.768 5.888-2.656 1.152-2.08 1.152-4.16 1.152-6.816z m21.248 36.128l-7.04-52.544c0-0.768 0.64-1.344 1.152-1.344h7.04c1.12 0 2.272 0.768 2.272 2.656l7.04 51.968c0 0.768-0.64 1.344-1.152 1.344h-7.68c-0.96-0.576-1.632-1.344-1.632-2.08zM501.504 320.384l3.616 25.344h-44.16l24.544 185.984c0 0.768 0 0.768 0.64 2.08 0 0 0.64 0.768 1.792 0.768h61.312c20.608 0 34.176-5.504 41.856-15.136 2.944-4.16 5.248-8.864 7.04-14.368 0.64-6.784 0.64-13.024 0-20.608v-6.208l3.584-2.112c2.304-2.048 5.248-3.392 7.04-6.208 2.944-4.16 5.248-8.896 5.888-15.136 0.64-6.816 0.64-14.368-0.64-21.184-1.824-8.864-3.616-16.416-7.68-24-2.976-6.24-7.04-11.52-12.448-15.104a79.36 79.36 0 0 0-15.84-8.896c-7.04-2.08-12.928-2.624-19.456-2.624h-7.04c-7.04 0-12.928-6.24-14.24-14.4v-2.24l-5.888-43.68v-2.08s0-0.736-0.64-0.736h-0.64c0.16 1.312-28.64 0.544-28.64 0.544zM609.92 483.904c0-2.08-0.64-2.656-0.64-4.736-8.832-51.2-37.12-67.68-73.76-67.68h-18.784c-4.768 0-7.68-3.392-8.864-8.864l-9.472-71.072-2.272-20.608c-0.64-2.656 1.792-5.472 4.064-6.24H534.4c4.096 0 7.04 3.424 7.68 8.128v2.08l6.56 46.496 0.64 2.656c0.64 4.736 4.096 8.128 7.68 8.128h4.576c32.384 0 56.576 15.68 64.928 59.52 2.944 18.56 1.792 34.24-6.528 44.448-3.456 2.816-5.888 5.664-9.984 7.744zM601.088 487.872c-1.792 0-2.304 0.736-4.096 0.736-1.792 0-2.944 0.768-4.064 0.768-5.248 0.768-11.136 2.08-16.544 2.08h-49.536c-4.064 0-7.04-3.392-7.68-8.128l-9.984-78.816v-2.08c0.64 5.472 4.768 8.864 8.832 8.864h18.816c36.608 0 65.408 17.024 73.728 67.68 0 2.08 0.64 2.656 0.64 4.736-2.24 0.736-4.704 2.624-7.008 3.392l-3.104 0.768s0-0.576 0 0zM519.168 482.368c0.64 4.736 4.096 8.128 7.68 8.128h49.536c5.248 0 11.136 0 16.544-2.08 1.792 0 2.912-0.736 4.064-0.736 1.792 0 2.304-0.768 4.096-0.768l1.792-0.736c2.304-0.768 4.736-2.08 7.04-3.424 2.272 18.56 0 31.36-8.832 42.336-9.472 13.44-27.136 18.912-48.896 18.912h-63.744c-4.768 0-7.68-3.392-8.832-8.896l-25.856-195.424c-0.64-3.392 1.792-6.24 4.768-7.552h40.032l9.984 72.384c0.64 0 10.624 77.856 10.624 77.856zM800 576a32 32 0 0 0 32-32v-320a32 32 0 0 0-32-32H224a32 32 0 0 0-32 32V544a32 32 0 0 0 32 32h576zM224 608a64 64 0 0 1-64-64v-320a64 64 0 0 1 64-64h576a64 64 0 0 1 64 64V544a64 64 0 0 1-64 64H224z"  horiz-adv-x="1024" />

    
    <glyph glyph-name="-tishi" unicode="&#58917;" d="M512 676.096a292.096 292.096 0 1 1 0-584.192 292.096 292.096 0 1 1 0 584.192zM160 384C160 578.4 317.6 736 512 736s352-157.6 352-352-157.6-352-352-352S160 189.6 160 384zM482.048 279.904V624.704h59.904v-344.8h-59.904zM512 137.6a39.04 39.04 0 1 1 0 78.08 39.04 39.04 0 0 1 0-78.08zM512 212.48a35.84 35.84 0 1 1 0-71.712 35.84 35.84 0 0 1 0 71.712z m39.04-35.84a39.04 39.04 0 1 0-78.08 0 39.04 39.04 0 0 0 78.08 0z"  horiz-adv-x="1024" />

    
    <glyph glyph-name="-bianji" unicode="&#58916;" d="M848.544 700L411.36 262.816l-27.136 27.168L821.408 727.168l27.136-27.168zM160 716.8a19.2 19.2 0 0 0 19.2 19.2h440.416v-38.4H198.4v-627.04h627.04V482.176h38.4v-430.784a19.2 19.2 0 0 0-19.2-19.2H179.2a19.2 19.2 0 0 0-19.2 19.2V716.8z"  horiz-adv-x="1024" />

    
    <glyph glyph-name="-touxiang" unicode="&#58906;" d="M512.832 379.296a194.208 194.208 0 0 1 194.048 194.368A194.208 194.208 0 0 1 512.832 768a194.208 194.208 0 0 1-194.048-194.336 194.208 194.208 0 0 1 194.048-194.368zM585.024 266.304H440.64c-155.616 0-287.712-113.856-312.256-264.736-2.944-18.112 11.808-33.568 30.144-33.568h700.48c18.016 0 32.64 14.912 30.272 32.768a305.472 305.472 0 0 1-304.256 265.536z"  horiz-adv-x="1024" />

    
    <glyph glyph-name="-daifukuan" unicode="&#58907;" d="M346.304 632.576c0-6.08 1.344-12 2.24-15.84l0.288-1.312c0.96-4.352 1.6-7.872 1.6-11.936a120.8 120.8 0 0 0-121.92-121.92 97.28 97.28 0 0 0-16.096 1.92c-5.888 0.96-13.44 2.24-21.28 2.24a19.2 19.2 0 0 1-19.2-19.2v-365.344c0-47.968 41.792-89.76 89.76-89.76H847.04c48 0 89.792 41.792 89.792 89.76v132.864a19.2 19.2 0 0 1-19.2 19.2h-307.2c-43.36 0-80.448 37.056-80.448 80.416s37.088 80.448 80.448 80.448h307.2a19.2 19.2 0 0 1 19.2 19.2v128.672c0 48-41.824 89.792-89.792 89.792H365.504a19.2 19.2 0 0 1-19.2-19.2z m41.92-19.2H847.04c26.784 0 51.392-24.64 51.392-51.392v-109.472h-288c-64.576 0-118.848-54.272-118.848-118.848s54.272-118.816 118.848-118.816h288v-113.664c0-26.752-24.64-51.36-51.392-51.36H261.696c-26.752 0-51.36 24.608-51.36 51.36v343.68c5.312-0.832 11.648-1.696 18.176-1.696a159.168 159.168 0 0 1 160.32 160.32c0 3.584-0.256 6.88-0.64 9.888zM610.432 414.08h311.36c4.864 0 8.064-1.792 10.24-4.16 2.336-2.56 3.744-6.208 3.744-9.824v-128.704c0-11.616-9.408-18.176-14.016-18.176h-311.36c-43.328 0-80.416 37.088-80.416 80.448 0 43.36 37.088 80.448 80.448 80.448z m-118.848-80.416c0-64.576 54.272-118.816 118.848-118.816h311.36c28.608 0 52.384 26.656 52.384 56.544v128.704c0 25.6-19.52 52.384-52.416 52.384h-311.36c-64.544 0-118.816-54.24-118.816-118.816zM224.32 729.6a121.92 121.92 0 1 0 0-243.904 121.92 121.92 0 0 0 0 243.904zM64 607.68a160.32 160.32 0 1 1 320.704 0A160.32 160.32 0 0 1 64 607.68zM192.704 591.04V694.816h38.4V610.24h88.736v-38.4H211.904a19.2 19.2 0 0 0-19.2 19.2zM614.56 292.16a41.504 41.504 0 1 1 0 83.008 41.504 41.504 0 0 1 0-83.008z"  horiz-adv-x="1024" />

    
    <glyph glyph-name="-huiyuan" unicode="&#58908;" d="M544.992 715.744l151.904-262.24a14.4 14.4 0 0 0 0.384-0.704c2.336-4.608 4.064-5.152 4.16-5.184 0.064 0 1.696-0.576 6.112 1.536l133.056 75.392a14.624 14.624 0 0 0 1.824 0.864 40.96 40.96 0 0 0 37.76-4.352c10.144-6.88 18.048-19.36 15.232-34.24L838.784 99.2a14.4 14.4 0 0 0-0.32-1.44c-4.96-19.648-24.224-33.792-44.032-33.792H229.568c-11.392 0-21.44 3.424-29.28 9.888a44.832 44.832 0 0 0-15.04 25.344L128.544 487.008a36.416 36.416 0 0 0 54.944 37.44l133.344-75.52 0.8-0.512c1.504-0.96 2.848-1.056 4-0.704 1.184 0.352 3.296 1.536 5.088 5.12a14.4 14.4 0 0 0 0.384 0.64l151.904 262.272c6.304 14.176 20.576 20.256 32.96 20.256 12.448 0 26.72-6.08 33.024-20.256zM512 707.52c-3.968 0-5.984-1.856-6.592-3.392a14.08 14.08 0 0 0-0.864-1.76l-152.16-262.688c-4.896-9.408-12.704-16.32-22.24-19.2-9.504-2.88-19.648-1.408-28.096 3.936l-133.312 75.52c-3.328 2.016-6.4 1.536-8.544 0.096-2.08-1.408-3.84-4.16-3.104-8.512l0.064-0.32 56.576-387.104c1.088-3.84 2.912-6.56 5.088-8.32 2.144-1.792 5.44-3.296 10.752-3.296h564.864a17.696 17.696 0 0 1 15.84 11.648l56.576 387.072a15.808 15.808 0 0 0 0.128 0.768c0.288 1.344-0.064 3.52-3.2 5.6a11.84 11.84 0 0 1-9.856 1.664l-132.352-75.008a14.88 14.88 0 0 0-0.736-0.384c-8.64-4.288-18.624-6.496-28.544-3.232-9.792 3.2-16.32 10.688-20.672 19.072L519.456 702.4a13.664 13.664 0 0 0-0.864 1.76c-0.64 1.536-2.624 3.392-6.592 3.392z m107.52-406.816h-216.864v28.48h216.832v-28.48z"  horiz-adv-x="1024" />

    
    <glyph glyph-name="-yaoqing" unicode="&#58909;" d="M518.272 761.6a166.336 166.336 0 1 1 0-332.672 166.336 166.336 0 0 1 0 332.672zM313.536 595.264a204.736 204.736 0 1 0 409.44 0 204.736 204.736 0 0 0-409.44 0z m420.48-248.32a19.2 19.2 0 0 0 19.2-19.2v-71.36h71.36a19.2 19.2 0 1 0 0-38.4h-71.36v-71.424a19.2 19.2 0 1 0-38.4 0V217.92h-71.424a19.2 19.2 0 0 0 0 38.4h71.392v71.424a19.2 19.2 0 0 0 19.2 19.2zM128 13.856c9.184 169.984 151.488 302.944 321.184 302.944h86.304a19.2 19.2 0 1 0 0-38.4h-86.304c-142.72 0-263.296-106.816-281.024-246.368h700.736c-2.528 20.992-8.64 42.624-15.36 66.144a19.2 19.2 0 1 0 36.96 10.56l0.32-1.28c8.416-29.312 17.664-61.728 17.664-94.624a19.2 19.2 0 0 0-19.2-19.2H147.2a19.2 19.2 0 0 0-19.2 20.224z"  horiz-adv-x="1024" />

    
    <glyph glyph-name="-yifukuan" unicode="&#58910;" d="M64 620.8a19.2 19.2 0 0 0 19.2 19.2h862.016a19.2 19.2 0 0 0 19.2-19.2v-608a19.2 19.2 0 0 0-19.2-19.2H83.2a19.2 19.2 0 0 0-19.2 19.2v608z m38.4-19.2V32h823.616V601.6H102.4zM403.84 401.696v38.4H74.88v-38.4h328.96zM953.568 401.696H624.544v38.4h328.96v-38.4zM392.96 620.8a19.2 19.2 0 0 0 19.2 19.2h208.256a19.2 19.2 0 0 0 19.2-19.2v-399.776a19.2 19.2 0 0 0-31.488-14.752l-88.16 73.44-96.064-73.92a19.2 19.2 0 0 0-30.912 15.232V620.8z m38.4-19.2v-341.6l77.408 59.52a19.2 19.2 0 0 0 24-0.448l68.448-57.056V601.6H431.36z"  horiz-adv-x="1024" />

    
    <glyph glyph-name="-tuihuan" unicode="&#58911;" d="M128 551.68a19.2 19.2 0 0 0 19.2 19.2H896a19.2 19.2 0 0 0 19.2-19.2V44.8a19.2 19.2 0 0 0-19.2-19.2H147.2a19.2 19.2 0 0 0-19.2 19.2V551.68z m38.4-19.2V64h710.4V532.48H166.4zM254.688 728.256A19.2 19.2 0 0 0 270.08 736h499.2a19.2 19.2 0 0 0 15.232-7.52l126.72-165.12a19.2 19.2 0 0 0-15.232-30.88H147.2a19.2 19.2 0 0 0-15.392 30.656l122.88 165.12z m25.024-30.656l-94.304-126.72h671.68l-97.28 126.72H279.712zM657.92 336.64h-276.48v38.4h276.48c56.064 0 96-54.4 96-111.36s-39.936-111.36-96-111.36H396.8v38.4h261.12c28.416 0 57.6 30.08 57.6 72.96 0 42.88-29.184 72.96-57.6 72.96zM304.64 352l80.64-69.12c3.84-3.84 11.52 0 11.52 3.84V428.8c0 3.84-7.68 7.68-11.52 3.84l-80.64-69.12c-3.84-3.84-3.84-7.68 0-11.52z"  horiz-adv-x="1024" />

    
    <glyph glyph-name="-zhekou" unicode="&#58912;" d="M207.584 733.632a14.72 14.72 0 0 0 11.392 1.984l649.44-153.056h12.608c8.288 0 14.976-6.816 14.976-15.232v-456.096c0-8.416-6.72-15.232-14.976-15.232H412.288a15.104 15.104 0 0 0-14.944 15.232c0 29.952-26.784 57.216-56.192 57.216s-56.192-27.264-56.192-57.216c0-8.416-6.72-15.232-14.976-15.232h-159.04A15.104 15.104 0 0 0 96 111.232V567.36c0 8.416 6.72 15.232 14.976 15.232h59.968l30.016 141.44a15.232 15.232 0 0 0 6.624 9.6z m-6.016-151.072h64.256c8.256 0 14.944-6.816 14.944-15.232 0-29.952 26.784-57.248 56.192-57.248s56.192 27.296 56.192 57.248c0 8.416 6.72 15.232 14.976 15.232H735.68L227.008 702.4 201.6 582.56z m663.424-30.496H421.664c-6.592-35.104-35.264-64.32-69.76-71.008v-282.88c36.32-5.056 67.072-35.2 73.92-71.68h440.256V551.808l-1.088 0.224z m-543.008-355.52v284.512c-34.464 6.72-63.136 35.936-69.696 71.04H125.92v-425.6h130.56c6.304 33.664 32.96 61.888 65.504 70.08z m224.256 291.616c-21.792 0-39.456-18.016-39.456-40.192 0-22.176 17.664-40.16 39.456-40.16 21.76 0 39.424 17.984 39.424 40.16 0 22.208-17.664 40.192-39.424 40.192z m-69.376-40.192c0 39.04 31.04 70.656 69.376 70.656 38.304 0 69.344-31.648 69.344-70.656 0-39.04-31.04-70.656-69.344-70.656-38.336 0-69.376 31.648-69.376 70.656z m301.824 49.056a15.424 15.424 0 0 0-0.16-21.568l-276.224-277.024a14.784 14.784 0 0 0-21.12 0.16 15.424 15.424 0 0 0 0.128 21.536l276.224 277.056a14.784 14.784 0 0 0 21.152-0.16z m-65.056-213.472c-21.76 0-39.424-17.984-39.424-40.192 0-22.176 17.632-40.16 39.424-40.16 21.76 0 39.456 17.984 39.456 40.16 0 22.208-17.664 40.192-39.456 40.192z m-69.376-40.192c0 39.04 31.04 70.656 69.376 70.656 38.304 0 69.376-31.616 69.376-70.656 0-39.008-31.04-70.624-69.376-70.624-38.304 0-69.376 31.616-69.376 70.624z"  horiz-adv-x="1024" />

    
    <glyph glyph-name="-shezhi" unicode="&#58913;" d="M414.624 682.4A56.416 56.416 0 0 0 470.624 736h83.744c30.72 0 56.064-25.344 56.064-56.064 0-0.768 0.032-1.376 0.096-1.824l0.192-0.064a276.544 276.544 0 0 0 90.176-50.56l0.576-0.48 0.32-0.32 0.512-0.096c0.992-0.096 2.752 0 5.28 0.736 26.208 13.984 59.68 3.2 74.368-21.28l0.192-0.32 40.128-70.24c15.2-25.6 5.696-59.04-17.664-74.88a13.216 13.216 0 0 1-2.304-3.328 10.08 10.08 0 0 1-0.8-3.328c3.296-15.104 3.296-32.608 3.264-47.424V404.096c0-15.104 0.032-35.424-13.536-55.68l0.256-0.128 0.64-0.352c25.088-15.072 35.84-49.92 20.096-76.416l-40.32-70.56c-14.912-24.832-49.152-35.584-75.52-20.64a2.944 2.944 0 0 1-1.024 0.096h-0.192l-0.416-0.448-0.544-0.48a276.448 276.448 0 0 0-88.512-49.984 6.304 6.304 0 0 1-1.6-1.408 1.92 1.92 0 0 1-0.288-0.48 56.384 56.384 0 0 0-56.128-56.64h-80.416c-30.72 0-56.064 25.376-56.064 56.096a17.344 17.344 0 0 1-0.064 1.824l-0.224 0.064a276.608 276.608 0 0 0-90.176 50.56l-0.576 0.448-0.384 0.416-0.192 0.032a2.976 2.976 0 0 1-1.024-0.096c-26.368-14.944-60.608-4.192-75.52 20.64l-0.064 0.096-43.488 73.6-0.032 0.064c-15.36 25.632-5.824 59.168 17.6 75.008a13.12 13.12 0 0 1 2.304 3.36 10.048 10.048 0 0 1 0.768 3.296c-3.264 15.136-3.264 32.64-3.264 47.456v1.344c0 15.328 3.648 33.6 6.816 49.44l0.256 1.216 0.224 1.184 0.224 0.64-0.064 0.064a3.136 3.136 0 0 1-0.544 0.8v0.032c-28.48 14.496-41.28 50.368-20.48 77.92l39.296 68.8c14.208 27.68 48.64 40.448 75.904 21.728 1.92-0.512 2.56-0.448 2.784-0.416 0.096 0 1.152 0.096 3.808 1.76a312 312 0 0 0 87.168 52.288 12 12 0 0 1 2.368 1.76z m56 15.2a17.984 17.984 0 0 1-17.664-17.664c0-9.664-4.672-17.28-8.832-22.112a49.472 49.472 0 0 0-15.2-11.84l-0.704-0.32-0.736-0.32a273.728 273.728 0 0 1-78.4-47.008l-0.896-0.736-0.96-0.64a48.192 48.192 0 0 0-22.144-8.576 50.688 50.688 0 0 0-21.376 2.976l-3.264 1.088-2.656 2.144a11.52 11.52 0 0 1-10.624 2.336 17.184 17.184 0 0 1-10.496-9.344l-0.224-0.48-41.216-72.128-0.96-1.152a11.52 11.52 0 0 1-2.304-10.624 17.184 17.184 0 0 1 9.312-10.496c7.488-3.712 13.664-10.304 17.408-17.792 3.712-7.456 5.728-17.248 2.72-27.552-3.392-16.96-6.144-31.296-6.144-42.176 0-17.504 0.128-31.648 2.784-42.24l0.544-2.304v-2.368c0-7.264-1.216-14.176-4.16-20.8-2.88-6.496-7.04-11.744-11.52-16.224l-1.664-1.696-2.016-1.216c-8.32-4.992-11.008-16.896-6.816-23.904l0.064-0.128 43.52-73.6v-0.032c5.024-8.32 16.896-10.976 23.904-6.784l0.64 0.384 0.64 0.32c12.128 6.08 31.2 6.88 44.992-6.336a238.4 238.4 0 0 1 76.896-42.88c8.224-2.72 15.68-7.616 20.672-15.584 4.736-7.552 5.856-15.808 5.856-22.72 0-9.504 8.16-17.664 17.664-17.664h80.416a17.984 17.984 0 0 1 17.664 17.664c0 19.84 13.408 31.968 24 37.28l1.216 0.608 1.28 0.416a238.4 238.4 0 0 1 76.928 42.88c13.792 13.216 32.864 12.384 44.992 6.336l0.64-0.32 0.64-0.384c6.976-4.16 18.784-1.536 23.84 6.688l40.32 70.496c4.096 6.912 1.568 18.56-6.464 23.68a40.288 40.288 0 0 0-16.48 17.344 37.696 37.696 0 0 0-2.304 28.896l1.088 3.232 2.144 2.688c8.8 10.976 9.216 21.312 9.216 38.272 0 17.504-0.128 31.616-2.784 42.24l-0.576 2.304v2.368c0 7.264 1.216 14.176 4.16 20.8 2.88 6.496 7.04 11.744 11.52 16.224l1.664 1.664 2.016 1.216c8.32 4.992 11.04 16.928 6.816 23.936l-0.192 0.32-40.096 70.176c-5.056 8.224-16.864 10.88-23.84 6.688l-1.792-1.088-2.016-0.672c-12.288-4.096-31.392-6.432-45.824 7.36a238.4 238.4 0 0 1-76.896 42.88 37.6 37.6 0 0 0-20.672 15.584 42.24 42.24 0 0 0-5.856 22.752 17.984 17.984 0 0 1-17.664 17.664h-83.744z m40.192-174.24a118.176 118.176 0 1 1 0-236.352 118.176 118.176 0 0 1 0 236.352z m-156.576-118.176a156.576 156.576 0 1 0 313.152 0 156.576 156.576 0 0 0-313.152 0z"  horiz-adv-x="1024" />

    
    <glyph glyph-name="-yifahuo" unicode="&#58914;" d="M558.72 492.48v-346.336c0-8.48 6.816-15.36 15.2-15.36h106.88a15.296 15.296 0 0 1 15.2 15.36v12.512c0 33.76 26.624 63.904 62.944 63.904a63.36 63.36 0 0 0 62.976-63.904v-12.48c0-8.512 6.784-15.424 15.168-15.424h86.368c10.976 0 21.12 5.44 27.776 12.992 6.592 7.52 11.104 18.944 7.488 31.296l-36.64 181.664c-0.8 10.496-8.064 17.984-13.184 21.856-5.824 4.448-14.08 8.32-22.464 8.32h-168.608c-2.72 0-3.808 0.832-4.16 1.216-0.384 0.352-1.216 1.472-1.216 4.224v100.16a15.296 15.296 0 0 1-15.168 15.36h-123.36a15.296 15.296 0 0 1-15.168-15.36z m30.368-15.424h93.024v-84.736c0-9.76 3.264-19.072 10.08-26.016 6.816-6.912 16-10.24 25.632-10.24h168.512s0.448-0.064 1.28-0.384a13.44 13.44 0 0 0 4.32-2.88 14.72 14.72 0 0 1 0.192-1.12l37.024-183.584a15.52 15.52 0 0 1 0.448-1.792c0.032-0.064 0.064-0.128 0-0.32a4.704 4.704 0 0 0-1.056-1.792 8.544 8.544 0 0 0-2.624-1.984 5.888 5.888 0 0 0-2.464-0.64h-71.232a93.888 93.888 0 0 1-93.28 91.776c-53.056 0-91.776-43.264-93.248-91.808h-76.608v315.52zM693.152 507.84h69.92c35.072 0 64-20.384 82.528-48.576 0.416-0.608 0.768-1.28 1.088-1.92l37.024-79.296-27.424-13.184-36.544 78.24c-14.336 21.344-34.496 33.952-56.672 33.952H693.12v30.816zM290.176 222.56c-34.784 0-62.976-28.608-62.976-63.872 0-35.296 28.192-63.904 62.976-63.904s62.944 28.608 62.944 63.904c0 35.264-28.16 63.872-62.944 63.872z m-93.312-63.872c0 52.256 41.792 94.656 93.312 94.656 51.52 0 93.312-42.4 93.312-94.688 0-52.256-41.792-94.656-93.312-94.656-51.52 0-93.312 42.4-93.312 94.688zM758.944 222.56c-34.752 0-62.944-28.608-62.944-63.904 0-35.264 28.16-63.872 62.976-63.872 34.752 0 62.944 28.608 62.944 63.872 0 35.296-28.192 63.904-62.976 63.904z m-93.28-63.872c0 52.256 41.76 94.656 93.28 94.656s93.312-42.4 93.312-94.688c0-52.256-41.76-94.656-93.28-94.656s-93.312 42.4-93.312 94.688zM110.496 592.608c0 8.512 6.816 15.392 15.2 15.392h444.096c8.384 0 15.168-6.88 15.168-15.392v-446.464a15.296 15.296 0 0 0-15.168-15.36H368.32a15.296 15.296 0 0 0-15.168 15.36v12.544a63.36 63.36 0 0 1-62.944 63.872c-36.352 0-62.976-30.144-62.976-63.872v-12.544a15.296 15.296 0 0 0-15.168-15.36H125.696a15.296 15.296 0 0 0-15.2 15.36v116.832h30.368v-101.44h56.032c1.504 48.544 40.192 91.808 93.28 91.808a93.888 93.888 0 0 0 93.248-91.808h171.2V577.248H140.864v-84.768h-30.368V592.64zM265.504 406.144H64v30.784h201.504v-30.784zM302.496 310.176H105.12v30.784h197.376v-30.784z"  horiz-adv-x="1024" />

    
    <glyph glyph-name="-pinglun" unicode="&#58915;" d="M73.28 632.064v-426.4c0-38.272 32.384-70.656 70.688-70.656h231.456c9.856 0 20.96-4.8 30.144-16.896l68.704-101.024 0.064-0.064c8.096-12.128 21.472-17.024 33.6-17.024 12.16 0 24.896 4.8 34.432 14.4l1.184 1.152 70.688 103.904 0.512 1.088c4.352 8.64 13.28 14.464 28.704 14.464h231.456c38.304 0 70.656 32.384 70.656 70.656V632.064c0 38.304-32.352 70.656-70.656 70.656H143.968c-38.304 0-70.656-32.352-70.656-70.656zM144 666.976h730.944c18.56 0 34.912-16.352 34.912-34.912v-426.4c0-18.56-16.352-34.88-34.912-34.88h-231.456c-24.8 0-48-10.144-60.064-33.12l-67.264-98.912a13.28 13.28 0 0 0-8.224-3.008c-3.104 0-3.904 1.184-3.904 1.184l-69.344 101.984-0.256 0.32c-15.136 20.16-36.416 31.52-58.976 31.52H144c-18.56 0-34.912 16.384-34.912 34.912V632.064c0 18.56 16.352 34.912 34.912 34.912zM277.984 351.872a60.928 60.928 0 1 1 0 121.824 60.928 60.928 0 0 1 0-121.824zM509.44 351.872a60.896 60.896 0 1 1 0 121.824 60.896 60.896 0 0 1 0-121.824zM736.832 351.872a60.896 60.896 0 1 1 0 121.824 60.896 60.896 0 0 1 0-121.824z"  horiz-adv-x="1024" />

    
    <glyph glyph-name="-fenlei" unicode="&#58892;" d="M371.84 466.24a237.76 237.76 0 1 0 376.544-192.96l64.576-99.392-32.192-20.928-65.28 100.416a237.76 237.76 0 0 0-343.68 212.896z m237.728 199.36a199.36 199.36 0 1 1 0-398.688 199.36 199.36 0 0 1 0 398.688zM359.808 615.648H160v38.4h199.808v-38.4zM359.808 337.79200000000003H160v38.4h199.808v-38.4zM160 63.039999999999964h646.24v38.4H160v-38.4z"  horiz-adv-x="1024" />

    
    </font>
</defs>
</svg>
